<svg width="32" height="30" viewBox="0 0 32 30" fill="none" xmlns="http://www.w3.org/2000/svg">
<ellipse cx="15.7728" cy="15" rx="15.2728" ry="15" fill="#ECCB54"/>
<path d="M16.4997 7C14.7444 7.00004 13.02 7.46214 11.4998 8.33984C9.97968 9.21754 8.71734 10.4799 7.83968 12.0001C6.96203 13.5203 6.49999 15.2447 6.5 17.0001C6.50001 18.7554 6.96207 20.4798 7.83975 22C7.97235 22.2307 8.19119 22.3993 8.44812 22.4687C8.70504 22.5381 8.97901 22.5026 9.20975 22.37C9.44048 22.2374 9.60909 22.0186 9.67848 21.7616C9.74787 21.5047 9.71235 21.2307 9.57975 21C8.87119 19.7861 8.49843 18.4055 8.49975 17C8.50022 15.7732 8.78285 14.5629 9.32577 13.4628C9.86869 12.3626 10.6574 11.4021 11.6308 10.6554C12.6042 9.90875 13.7363 9.39597 14.9396 9.15672C16.1429 8.91747 17.385 8.95816 18.5701 9.27565C19.7551 9.59313 20.8512 10.1789 21.7737 10.9877C22.6962 11.7965 23.4203 12.8066 23.89 13.9399C24.3598 15.0732 24.5626 16.2994 24.4828 17.5236C24.403 18.7478 24.0427 19.9373 23.4297 21C23.3636 21.1141 23.3207 21.2402 23.3036 21.371C23.2864 21.5018 23.2952 21.6347 23.3296 21.762C23.364 21.8893 23.4233 22.0086 23.5039 22.113C23.5846 22.2173 23.6852 22.3047 23.7997 22.37C24.0294 22.5004 24.3012 22.5346 24.556 22.4653C24.8108 22.396 25.0278 22.2287 25.1597 22C26.0374 20.4798 26.4995 18.7554 26.4995 17.0001C26.4995 15.2447 26.0375 13.5203 25.1598 12.0001C24.2822 10.4799 23.0198 9.21754 21.4997 8.33984C19.9795 7.46214 18.2551 7.00004 16.4997 7ZM19.3397 12.76L17.7897 14.3C17.3885 14.1022 16.9471 13.9995 16.4997 14C15.9064 14 15.3264 14.1759 14.833 14.5056C14.3397 14.8352 13.9552 15.3038 13.7281 15.8519C13.501 16.4001 13.4416 17.0033 13.5574 17.5853C13.6731 18.1672 13.9589 18.7018 14.3784 19.1213C14.798 19.5409 15.3325 19.8266 15.9145 19.9424C16.4964 20.0581 17.0996 19.9987 17.6478 19.7716C18.196 19.5446 18.6645 19.1601 18.9942 18.6667C19.3238 18.1734 19.4997 17.5933 19.4997 17C19.4991 16.556 19.3964 16.1181 19.1997 15.72L20.7497 14.18C20.8435 14.087 20.9179 13.9764 20.9686 13.8546C21.0194 13.7327 21.0455 13.602 21.0455 13.47C21.0455 13.338 21.0194 13.2073 20.9686 13.0854C20.9179 12.9636 20.8435 12.853 20.7497 12.76C20.5624 12.5737 20.3089 12.4692 20.0447 12.4692C19.7806 12.4692 19.5271 12.5737 19.3397 12.76ZM16.4997 18C16.2345 18 15.9802 17.8946 15.7926 17.7071C15.6051 17.5196 15.4997 17.2652 15.4997 17C15.4997 16.7348 15.6051 16.4804 15.7926 16.2929C15.9802 16.1054 16.2345 16 16.4997 16C16.7607 15.9984 17.0119 16.0989 17.1997 16.28C17.2954 16.3738 17.3713 16.4859 17.4228 16.6095C17.4744 16.7332 17.5005 16.866 17.4997 17C17.4997 17.2652 17.3944 17.5196 17.2069 17.7071C17.0193 17.8946 16.765 18 16.4997 18Z" fill="#FAFAFA"/>
</svg>
