<svg width="16" height="20" viewBox="0 0 16 20" fill="none" xmlns="http://www.w3.org/2000/svg">
<path d="M6.0821 11.1262C5.69158 10.7357 5.05841 10.7357 4.66789 11.1262C4.27736 11.5168 4.27736 12.1499 4.66789 12.5404L6.0821 11.1262ZM7.20833 13.6667L6.50122 14.3738C6.89175 14.7643 7.52491 14.7643 7.91544 14.3738L7.20833 13.6667ZM11.5821 10.7071C11.9726 10.3166 11.9726 9.68342 11.5821 9.29289C11.1916 8.90237 10.5584 8.90237 10.1679 9.29289L11.5821 10.7071ZM13.5417 5.41667V16.4167H15.5417V5.41667H13.5417ZM12.7083 17.25H3.54166V19.25H12.7083V17.25ZM2.70833 16.4167V5.41667H0.708328V16.4167H2.70833ZM3.54166 4.58333H5.375V2.58333H3.54166V4.58333ZM10.875 4.58333H12.7083V2.58333H10.875V4.58333ZM3.54166 17.25C3.08142 17.25 2.70833 16.8769 2.70833 16.4167H0.708328C0.708328 17.9815 1.97685 19.25 3.54166 19.25V17.25ZM13.5417 16.4167C13.5417 16.8769 13.1686 17.25 12.7083 17.25V19.25C14.2731 19.25 15.5417 17.9815 15.5417 16.4167H13.5417ZM15.5417 5.41667C15.5417 3.85186 14.2731 2.58333 12.7083 2.58333V4.58333C13.1686 4.58333 13.5417 4.95643 13.5417 5.41667H15.5417ZM2.70833 5.41667C2.70833 4.95643 3.08142 4.58333 3.54166 4.58333V2.58333C1.97686 2.58333 0.708328 3.85186 0.708328 5.41667H2.70833ZM4.66789 12.5404L6.50122 14.3738L7.91544 12.9596L6.0821 11.1262L4.66789 12.5404ZM7.91544 14.3738L11.5821 10.7071L10.1679 9.29289L6.50122 12.9596L7.91544 14.3738ZM7.20833 2.75H9.04166V0.75H7.20833V2.75ZM9.04166 4.41667H7.20833V6.41667H9.04166V4.41667ZM7.20833 4.41667C6.74809 4.41667 6.375 4.04357 6.375 3.58333H4.375C4.375 5.14814 5.64352 6.41667 7.20833 6.41667V4.41667ZM9.875 3.58333C9.875 4.04357 9.5019 4.41667 9.04166 4.41667V6.41667C10.6065 6.41667 11.875 5.14814 11.875 3.58333H9.875ZM9.04166 2.75C9.5019 2.75 9.875 3.1231 9.875 3.58333H11.875C11.875 2.01853 10.6065 0.75 9.04166 0.75V2.75ZM7.20833 0.75C5.64352 0.75 4.375 2.01853 4.375 3.58333H6.375C6.375 3.1231 6.74809 2.75 7.20833 2.75V0.75Z" fill="#B8B7BE"/>
</svg>
