<svg width="31" height="30" viewBox="0 0 31 30" fill="none" xmlns="http://www.w3.org/2000/svg">
<circle cx="15.5" cy="15" r="15" fill="#44D5A3"/>
<path d="M21.6046 14.8303V6.86982C21.6046 6.63908 21.5109 6.41779 21.3442 6.25463C21.1775 6.09148 20.9514 5.99982 20.7156 5.99982C20.4799 5.99982 20.2538 6.09148 20.0871 6.25463C19.9204 6.41779 19.8267 6.63908 19.8267 6.86982V14.8303C19.0569 15.0491 18.3805 15.5068 17.8995 16.1344C17.4185 16.7621 17.159 17.5257 17.1599 18.3103C17.1599 20.0938 18.5111 23.3563 20.7156 23.3563C22.9202 23.3563 24.2713 20.0938 24.2713 18.3103C24.2723 17.5257 24.0127 16.7621 23.5317 16.1344C23.0508 15.5068 22.3744 15.0491 21.6046 14.8303ZM20.7156 21.6598C20.0045 21.6598 18.9378 19.6849 18.9378 18.3538C18.916 17.8697 19.0907 17.3968 19.4237 17.0383C19.7568 16.6797 20.2212 16.4646 20.7156 16.4398C21.2101 16.4646 21.6745 16.6797 22.0075 17.0383C22.3406 17.3968 22.5152 17.8697 22.4935 18.3538C22.4935 19.6849 21.4268 21.6598 20.7156 21.6598ZM14.4931 5.99982C14.2574 5.99982 14.0313 6.09148 13.8646 6.25463C13.6979 6.41779 13.6042 6.63908 13.6042 6.86982V11.62L12.7153 12.2029V6.86982C12.7153 6.63908 12.6216 6.41779 12.4549 6.25463C12.2882 6.09148 12.0621 5.99982 11.8264 5.99982C11.5906 5.99982 11.3645 6.09148 11.1978 6.25463C11.0311 6.41779 10.9374 6.63908 10.9374 6.86982V12.2029L10.0485 11.62V6.86982C10.0485 6.63908 9.95486 6.41779 9.78815 6.25463C9.62145 6.09148 9.39534 5.99982 9.15959 5.99982C8.92383 5.99982 8.69773 6.09148 8.53102 6.25463C8.36431 6.41779 8.27066 6.63908 8.27066 6.86982V12.0898C8.27142 12.2331 8.30833 12.374 8.37811 12.5C8.4479 12.626 8.5484 12.7331 8.67068 12.8119L10.9374 14.2996V22.5298C10.9374 22.7606 11.0311 22.9818 11.1978 23.145C11.3645 23.3082 11.5906 23.3998 11.8264 23.3998C12.0621 23.3998 12.2882 23.3082 12.4549 23.145C12.6216 22.9818 12.7153 22.7606 12.7153 22.5298V14.2996L14.9821 12.8119C15.1043 12.7331 15.2048 12.626 15.2746 12.5C15.3444 12.374 15.3813 12.2331 15.3821 12.0898V6.86982C15.3821 6.63908 15.2884 6.41779 15.1217 6.25463C14.955 6.09148 14.7289 5.99982 14.4931 5.99982Z" fill="#FAFAFA"/>
</svg>
