<svg width="20" height="20" viewBox="0 0 20 20" fill="none" xmlns="http://www.w3.org/2000/svg">
<path d="M1.625 10L3.45833 8.16667M3.45833 8.16667L9.875 1.75L16.2917 8.16667M3.45833 8.16667V17.3333C3.45833 17.8396 3.86874 18.25 4.375 18.25H7.125M16.2917 8.16667L18.125 10M16.2917 8.16667V17.3333C16.2917 17.8396 15.8813 18.25 15.375 18.25H12.625M7.125 18.25C7.63126 18.25 8.04167 17.8396 8.04167 17.3333V13.6667C8.04167 13.1604 8.45207 12.75 8.95833 12.75H10.7917C11.2979 12.75 11.7083 13.1604 11.7083 13.6667V17.3333C11.7083 17.8396 12.1187 18.25 12.625 18.25M7.125 18.25H12.625" stroke="#B8B7BE" stroke-width="2" stroke-linecap="round" stroke-linejoin="round"/>
</svg>
