<svg width="269" height="235" viewBox="0 0 269 235" fill="none" xmlns="http://www.w3.org/2000/svg">
<path d="M139.703 97.4825H84.8739V108.37H139.703V97.4825Z" fill="#FAFAFA"/>
<path d="M139.703 108.835H84.8739C84.7446 108.835 84.6207 108.785 84.5293 108.696C84.438 108.606 84.3867 108.486 84.3867 108.36V97.4822C84.3867 97.3562 84.438 97.2354 84.5293 97.1463C84.6207 97.0572 84.7446 97.0072 84.8739 97.0072H139.703C139.833 97.0072 139.956 97.0572 140.048 97.1463C140.139 97.2354 140.191 97.3562 140.191 97.4822V108.36C140.191 108.486 140.139 108.606 140.048 108.696C139.956 108.785 139.833 108.835 139.703 108.835ZM85.3611 107.885H139.216V97.9572H85.3611V107.885Z" fill="#B8B7BE"/>
<path d="M131.343 89.3002H81.2587V97.4797H131.343V89.3002Z" fill="#FAFAFA"/>
<path d="M131.343 97.9543H81.2589C81.1297 97.9543 81.0057 97.9043 80.9144 97.8152C80.823 97.7261 80.7717 97.6053 80.7717 97.4793V89.2998C80.7717 89.1739 80.823 89.053 80.9144 88.964C81.0057 88.8749 81.1297 88.8248 81.2589 88.8248H131.343C131.472 88.8248 131.596 88.8749 131.688 88.964C131.779 89.053 131.83 89.1739 131.83 89.2998V97.4793C131.828 97.6045 131.776 97.724 131.685 97.8125C131.594 97.9011 131.471 97.9519 131.343 97.9543ZM81.7461 97.0043H130.856V89.7748H81.7461V97.0043Z" fill="#B8B7BE"/>
<path d="M267.856 192.091H1.14363C1.01442 192.091 0.890498 192.041 0.79913 191.952C0.707763 191.863 0.656433 191.742 0.656433 191.616C0.656433 191.49 0.707763 191.369 0.79913 191.28C0.890498 191.191 1.01442 191.141 1.14363 191.141H267.856C267.986 191.141 268.109 191.191 268.201 191.28C268.292 191.369 268.344 191.49 268.344 191.616C268.344 191.742 268.292 191.863 268.201 191.952C268.109 192.041 267.986 192.091 267.856 192.091Z" fill="#B8B7BE"/>
<path d="M249.548 113.982H52.592V201.591H249.548V113.982Z" fill="#FAFAFA"/>
<path d="M249.557 202.03H52.592C52.4748 202.028 52.3633 201.981 52.2814 201.899C52.1994 201.817 52.1535 201.708 52.1535 201.593V113.984C52.1535 113.87 52.1994 113.76 52.2814 113.679C52.3633 113.597 52.4748 113.55 52.592 113.547H249.557C249.674 113.55 249.786 113.597 249.868 113.679C249.95 113.76 249.996 113.87 249.996 113.984V201.593C249.996 201.708 249.95 201.817 249.868 201.899C249.786 201.981 249.674 202.028 249.557 202.03ZM53.0402 201.147H249.109V114.421H53.0402V201.147Z" fill="#22242B"/>
<path d="M249.986 108.407H52.173C50.5908 108.407 49.3082 109.655 49.3082 111.195C49.3082 112.735 50.5908 113.983 52.173 113.983H249.986C251.568 113.983 252.851 112.735 252.851 111.195C252.851 109.655 251.568 108.407 249.986 108.407Z" fill="#FAFAFA"/>
<path d="M249.986 114.419H52.1826C51.3363 114.374 50.5398 114.015 49.9569 113.415C49.3741 112.815 49.0493 112.02 49.0493 111.193C49.0493 110.367 49.3741 109.572 49.9569 108.972C50.5398 108.372 51.3363 108.013 52.1826 107.968H249.986C250.832 108.013 251.629 108.372 252.211 108.972C252.794 109.572 253.119 110.367 253.119 111.193C253.119 112.02 252.794 112.815 252.211 113.415C251.629 114.015 250.832 114.374 249.986 114.419ZM52.1826 108.842C51.853 108.822 51.5226 108.867 51.2118 108.976C50.901 109.085 50.6164 109.255 50.3756 109.475C50.1348 109.696 49.9429 109.962 49.8116 110.257C49.6804 110.553 49.6127 110.871 49.6127 111.193C49.6127 111.515 49.6804 111.834 49.8116 112.129C49.9429 112.425 50.1348 112.691 50.3756 112.911C50.6164 113.132 50.901 113.302 51.2118 113.411C51.5226 113.519 51.853 113.565 52.1826 113.545H249.986C250.315 113.565 250.646 113.519 250.957 113.411C251.267 113.302 251.552 113.132 251.793 112.911C252.034 112.691 252.226 112.425 252.357 112.129C252.488 111.834 252.556 111.515 252.556 111.193C252.556 110.871 252.488 110.553 252.357 110.257C252.226 109.962 252.034 109.696 251.793 109.475C251.552 109.255 251.267 109.085 250.957 108.976C250.646 108.867 250.315 108.822 249.986 108.842H52.1826Z" fill="#22242B"/>
<path d="M30.5511 159.154C30.6414 157.78 30.3413 156.41 29.6838 155.192C29.0309 154.392 28.4227 153.558 27.8617 152.694C27.0919 151.088 27.6279 149.198 27.4525 147.431C27.2756 145.943 26.5889 144.557 25.5037 143.498C24.5293 142.548 23.3308 141.921 22.4246 140.952C20.9435 139.356 20.4758 137.152 19.6768 135.109C18.4736 132.294 16.399 129.916 13.7427 128.307C15.3602 131.48 11.6672 135.518 13.3432 138.662C13.8693 139.66 14.8827 140.391 15.292 141.446C16.2664 144.001 13.1093 146.766 14.1032 149.302C14.6001 150.566 15.9935 151.297 16.6366 152.494C17.5136 154.109 16.8218 156.076 16.8997 157.9C16.9972 160.417 18.5659 162.65 20.4368 164.417C21.5963 165.5 22.8923 166.44 24.1493 167.419C25.6498 168.597 26.2832 169.832 27.6084 167.941C29.4465 165.354 30.4693 162.3 30.5511 159.154Z" fill="#22242B"/>
<path d="M32.1881 160.6C31.7009 158.7 31.3598 156.534 32.1881 154.701C33.1625 152.62 35.4133 151.148 35.6764 148.896C35.8518 147.424 35.082 145.932 35.3841 144.479C35.6861 143.025 36.9139 142.028 37.9175 140.954C40.2306 138.473 41.6056 135.296 41.8151 131.948C43.3654 133.746 44.618 135.768 45.5276 137.943C45.9729 139.036 46.1561 140.213 46.0632 141.386C45.9704 142.558 45.6038 143.694 44.9917 144.707C44.5942 145.155 44.2659 145.658 44.0173 146.198C43.569 147.633 44.826 148.982 45.4789 150.34C45.8653 151.118 46.0268 151.984 45.9461 152.844C45.8654 153.704 45.5455 154.527 45.0209 155.223C43.6957 156.829 41.1233 157.446 40.4997 159.403C40.337 160.134 40.2618 160.88 40.2756 161.626C40.1368 162.921 39.6044 164.145 38.7467 165.142C37.889 166.139 36.7451 166.863 35.462 167.222C33.903 167.592 33.9322 166.984 33.6497 165.702C33.3281 163.982 32.646 162.32 32.1881 160.6Z" fill="#22242B"/>
<path d="M27.2478 146.588C26.1467 142.845 25.6985 138.931 24.5292 135.188C23.5314 132.274 22.3166 129.436 20.8947 126.695L25.6595 128.661C27.1893 129.288 28.8361 130.029 29.5571 131.511C30.8141 134.048 28.5827 137.287 29.8787 139.795C30.4493 140.607 31.0777 141.378 31.7593 142.104C33.1624 144.004 32.948 146.664 32.1783 148.896C31.847 149.846 30.4049 154.824 29.1186 153.447C28.6022 152.896 28.5535 150.834 28.3391 150.074C28.0078 148.896 27.5986 147.756 27.2478 146.588Z" fill="#22242B"/>
<path d="M29.7813 196.33C28.8069 190.212 25.8837 168.647 25.8253 168.428L26.7997 168.305C26.7997 168.514 29.8008 190.079 30.7557 196.187L29.7813 196.33Z" fill="#22242B"/>
<path d="M31.0479 202.095H30.0735C30.0735 194.818 33.2501 167.021 35.043 165.102L35.764 165.748C34.3999 167.201 31.1064 194.029 31.0479 202.095Z" fill="#22242B"/>
<path d="M32.6655 200.719L31.6911 200.671C32.3926 185.015 28.992 152.126 28.953 151.794L29.9274 151.699C29.9566 152.031 33.3768 184.996 32.6655 200.719Z" fill="#22242B"/>
<path d="M21.6937 178.783H39.4278L38.1805 198.42C37.9662 201.811 35.384 204.452 32.2757 204.452H28.8458C25.7277 204.452 23.1455 201.811 22.9312 198.42L21.6937 178.783Z" fill="#FAFAFA"/>
<path d="M32.2757 204.946H28.8458C25.4841 204.946 22.6681 202.096 22.4343 198.457L21.1968 178.821C21.1923 178.755 21.2012 178.69 21.2229 178.628C21.2447 178.566 21.2788 178.509 21.3234 178.46C21.422 178.364 21.5548 178.31 21.6937 178.308H39.4278C39.4953 178.308 39.5619 178.322 39.6238 178.348C39.6857 178.374 39.7416 178.412 39.7883 178.46C39.8362 178.507 39.8731 178.564 39.8966 178.626C39.9201 178.688 39.9297 178.755 39.9248 178.821L38.6873 198.457C38.4534 202.096 35.6374 204.946 32.2757 204.946ZM22.2296 179.296L23.4184 198.381C23.6133 201.507 25.9908 203.958 28.8263 203.958H32.2562C35.0917 203.958 37.4693 201.507 37.6641 198.381L38.8919 179.296H22.2296Z" fill="#22242B"/>
<path d="M100.104 12.683H38.9113V78.404H100.104V12.683Z" fill="#FAFAFA"/>
<path d="M100.094 78.8788H38.9113C38.7821 78.8788 38.6582 78.8287 38.5668 78.7396C38.4754 78.6506 38.4241 78.5297 38.4241 78.4038V12.6828C38.4241 12.5568 38.4754 12.436 38.5668 12.3469C38.6582 12.2578 38.7821 12.2078 38.9113 12.2078H100.094C100.223 12.2078 100.347 12.2578 100.438 12.3469C100.53 12.436 100.581 12.5568 100.581 12.6828V78.4038C100.581 78.5297 100.53 78.6506 100.438 78.7396C100.347 78.8287 100.223 78.8788 100.094 78.8788ZM39.3985 77.9288H99.6067V13.1578H39.3985V77.9288Z" fill="#B8B7BE"/>
<path d="M52.9915 66.1707C52.924 66.1848 52.8543 66.1848 52.7868 66.1707L50.5652 65.1637C50.4663 65.1189 50.3857 65.0431 50.3362 64.9483C50.2868 64.8536 50.2713 64.7454 50.2924 64.6412C51.3252 59.3686 54.5797 56.8512 58.0194 54.1912C60.294 52.5597 62.3384 50.6432 64.0996 48.4912C67.13 44.5867 66.7597 42.5631 66.331 40.2071C65.9369 38.6046 65.9136 36.9366 66.2628 35.3241C67.4905 30.1751 72.7815 24.7792 73.0056 24.5512C73.0791 24.475 73.1767 24.4251 73.2827 24.4096C73.3888 24.3941 73.4971 24.4138 73.5903 24.4657L76.8058 26.2231C76.8723 26.2608 76.9289 26.3131 76.9712 26.3757C77.0134 26.4384 77.0402 26.5097 77.0494 26.5842C77.0552 26.66 77.0434 26.7362 77.0147 26.8069C76.986 26.8777 76.9412 26.9412 76.8837 26.9927C75.1593 28.4593 73.9298 30.3998 73.3564 32.5597C75.8996 32.3792 84.8446 32.2367 86.8519 38.8107C89.3171 46.8952 85.4877 57.8107 73.5318 62.2567C65.3761 65.2587 63.5247 62.1902 62.18 59.9482C61.4005 58.6562 60.9815 58.0481 59.861 58.3616C55.9634 59.4542 53.4689 65.8097 53.4494 65.8667C53.426 65.9285 53.3897 65.985 53.3427 66.0324C53.2958 66.0798 53.2392 66.1172 53.1766 66.1422C53.1179 66.1652 53.0546 66.1749 52.9915 66.1707ZM51.3252 64.4132L52.7284 65.0497C53.4104 63.4632 55.827 58.4851 59.5492 57.4496C61.4492 56.9177 62.2288 58.2097 62.9791 59.4637C64.2165 61.5252 65.7561 64.0807 73.142 61.3637C85.9359 56.6612 87.7581 45.2137 85.8775 39.0862C83.8117 32.3222 72.8887 33.5476 72.7718 33.5571C72.6992 33.5663 72.6254 33.5591 72.5561 33.536C72.4869 33.513 72.424 33.4747 72.3723 33.4241C72.3209 33.3731 72.2813 33.3119 72.2561 33.2448C72.2309 33.1776 72.2207 33.106 72.2261 33.0347C72.6585 30.6243 73.8787 28.4149 75.7047 26.7362L73.4149 25.4727C72.3333 26.6222 68.1921 31.2677 67.1787 35.5427C66.8601 37.0301 66.8834 38.568 67.2469 40.0457C67.6757 42.4017 68.1239 44.7957 64.8402 49.0612C63.0363 51.2464 60.9463 53.1915 58.6235 54.8467C55.2715 57.4782 52.3581 59.7297 51.3252 64.4132Z" fill="#B8B7BE"/>
<path d="M92.9418 65.2936H81.5413C81.4121 65.2936 81.2881 65.2436 81.1968 65.1545C81.1054 65.0654 81.0541 64.9446 81.0541 64.8186C81.0541 64.6926 81.1054 64.5718 81.1968 64.4828C81.2881 64.3937 81.4121 64.3436 81.5413 64.3436H92.9418C93.071 64.3436 93.1949 64.3937 93.2863 64.4828C93.3776 64.5718 93.429 64.6926 93.429 64.8186C93.4265 64.9438 93.3743 65.0633 93.2835 65.1518C93.1927 65.2404 93.0702 65.2912 92.9418 65.2936Z" fill="#B8B7BE"/>
<path d="M92.9418 68.5549H81.5413C81.4121 68.5549 81.2881 68.5048 81.1968 68.4157C81.1054 68.3267 81.0541 68.2058 81.0541 68.0799C81.0541 67.9539 81.1054 67.8331 81.1968 67.744C81.2881 67.6549 81.4121 67.6049 81.5413 67.6049H92.9418C93.0702 67.6073 93.1927 67.6581 93.2835 67.7467C93.3743 67.8352 93.4265 67.9546 93.429 68.0799C93.429 68.2058 93.3776 68.3267 93.2863 68.4157C93.1949 68.5048 93.071 68.5549 92.9418 68.5549Z" fill="#B8B7BE"/>
<path d="M89.7946 72.2585H81.3465C81.2181 72.256 81.0956 72.2052 81.0048 72.1166C80.9139 72.0281 80.8618 71.9087 80.8593 71.7835C80.8593 71.6575 80.9107 71.5367 81.002 71.4476C81.0934 71.3585 81.2173 71.3085 81.3465 71.3085H89.7946C89.9238 71.3085 90.0477 71.3585 90.1391 71.4476C90.2304 71.5367 90.2818 71.6575 90.2818 71.7835C90.2793 71.9087 90.2271 72.0281 90.1363 72.1166C90.0455 72.2052 89.923 72.256 89.7946 72.2585Z" fill="#B8B7BE"/>
<path d="M57.3859 23.0291H44.1536C44.0251 23.0267 43.9026 22.9758 43.8118 22.8873C43.721 22.7987 43.6688 22.6793 43.6664 22.5541C43.6664 22.4281 43.7177 22.3073 43.809 22.2182C43.9004 22.1291 44.0243 22.0791 44.1536 22.0791H57.3859C57.5151 22.0791 57.639 22.1291 57.7304 22.2182C57.8218 22.3073 57.8731 22.4281 57.8731 22.5541C57.8731 22.6801 57.8218 22.8009 57.7304 22.89C57.639 22.9791 57.5151 23.0291 57.3859 23.0291Z" fill="#B8B7BE"/>
<path d="M57.3859 27.6651H44.1536C44.0251 27.6627 43.9026 27.6118 43.8118 27.5233C43.721 27.4347 43.6688 27.3153 43.6664 27.1901C43.6664 27.0641 43.7177 26.9433 43.809 26.8542C43.9004 26.7651 44.0243 26.7151 44.1536 26.7151H57.3859C57.5151 26.7151 57.639 26.7651 57.7304 26.8542C57.8218 26.9433 57.8731 27.0641 57.8731 27.1901C57.8731 27.3161 57.8218 27.4369 57.7304 27.526C57.639 27.6151 57.5151 27.6651 57.3859 27.6651Z" fill="#B8B7BE"/>
<path d="M93.8479 18.3859H44.1536C44.0243 18.3859 43.9004 18.3359 43.809 18.2468C43.7177 18.1577 43.6664 18.0369 43.6664 17.9109C43.6688 17.7857 43.721 17.6663 43.8118 17.5777C43.9026 17.4892 44.0251 17.4383 44.1536 17.4359H93.8479C93.9772 17.4359 94.1011 17.486 94.1925 17.575C94.2838 17.6641 94.3351 17.7849 94.3351 17.9109C94.3351 18.0369 94.2838 18.1577 94.1925 18.2468C94.1011 18.3359 93.9772 18.3859 93.8479 18.3859Z" fill="#B8B7BE"/>
<path d="M188.521 207.444L187.361 221.409C187.361 221.409 166.49 225.038 161.052 225.038C155.615 225.038 156.181 221.874 164.453 217.048C170.952 213.248 175.98 212.821 175.98 212.821L176.633 206.313L188.521 207.444Z" fill="#FAFAFA"/>
<path d="M161.072 225.474C158.149 225.474 157.35 224.591 157.174 223.85C156.57 221.684 160.702 218.758 164.287 216.677C167.757 214.572 171.606 213.131 175.63 212.431L176.243 206.265C176.258 206.152 176.317 206.048 176.407 205.976C176.498 205.904 176.614 205.868 176.731 205.876L188.609 207.006C188.725 207.021 188.831 207.078 188.905 207.166C188.98 207.255 189.016 207.367 189.008 207.481L187.848 221.446C187.841 221.543 187.8 221.633 187.733 221.704C187.666 221.775 187.576 221.821 187.478 221.836C186.592 221.988 166.46 225.474 161.072 225.474ZM177.052 206.788L176.438 212.858C176.429 212.959 176.385 213.053 176.311 213.124C176.238 213.196 176.142 213.239 176.039 213.248C172.014 213.888 168.161 215.306 164.706 217.418C159.347 220.534 157.73 222.662 157.993 223.622C158.178 224.249 159.299 224.572 161.072 224.572C166.012 224.572 184.233 221.484 186.952 221.009L188.092 207.795L177.052 206.788Z" fill="#22242B"/>
<path d="M216.993 207.662C217.69 210.58 217.93 213.585 217.704 216.573C217.168 220.421 216.905 225.598 217.831 228.695C218.756 231.792 222.829 235.079 226.016 233.008C229.202 230.937 229.017 221.095 228.491 218.53C227.964 215.965 226.542 209.22 226.717 205.601L216.993 207.662Z" fill="#FAFAFA"/>
<path d="M223.843 234.092C223.254 234.087 222.67 233.981 222.118 233.779C221.007 233.343 220.008 232.672 219.194 231.814C218.38 230.957 217.772 229.934 217.412 228.82C216.233 224.915 217.003 218.417 217.266 216.517C217.479 213.583 217.242 210.634 216.564 207.768C216.55 207.712 216.547 207.653 216.557 207.596C216.567 207.538 216.59 207.484 216.623 207.435C216.651 207.386 216.69 207.344 216.738 207.311C216.785 207.278 216.838 207.256 216.895 207.245L226.639 205.174C226.706 205.161 226.775 205.163 226.841 205.179C226.906 205.196 226.968 205.227 227.019 205.269C227.072 205.312 227.114 205.366 227.141 205.427C227.168 205.488 227.18 205.554 227.175 205.621C227.01 209.06 228.315 215.444 228.88 218.161L228.939 218.446C229.426 220.83 229.757 231.109 226.269 233.37C225.554 233.845 224.708 234.096 223.843 234.092ZM217.529 207.996C218.177 210.828 218.384 213.739 218.143 216.631C217.889 218.484 217.168 224.83 218.26 228.582C218.587 229.562 219.129 230.461 219.847 231.217C220.566 231.973 221.443 232.568 222.42 232.962C222.961 233.179 223.549 233.263 224.131 233.209C224.714 233.154 225.274 232.962 225.762 232.648C228.686 230.748 228.598 221.248 228.052 218.617L227.994 218.332C227.458 215.719 226.24 209.782 226.259 206.143L217.529 207.996Z" fill="#22242B"/>
<path d="M203.682 88.8822C201.86 87.7707 175.425 86.9822 175.425 86.9822C175.425 86.9822 173.642 172.739 175.902 209.874H189.066C189.066 209.874 202.269 154.404 199.999 134.824C199.999 134.824 214.566 189.991 215.083 211.622H230.108C230.108 211.622 232.33 160.968 226.863 138.548C221.397 116.128 203.682 88.8822 203.682 88.8822Z" fill="#22242B"/>
<path d="M230.118 212.012H215.093C214.981 212.012 214.873 211.97 214.793 211.893C214.713 211.817 214.667 211.713 214.664 211.604C214.235 193.763 204.092 152.542 200.691 139.166C200.983 161.425 189.622 209.466 189.495 209.96C189.475 210.053 189.422 210.136 189.345 210.195C189.269 210.254 189.174 210.286 189.076 210.283H175.873C175.763 210.284 175.656 210.242 175.577 210.168C175.497 210.093 175.449 209.992 175.444 209.884C173.213 173.167 174.947 87.8284 174.967 86.9639C174.968 86.9085 174.981 86.8539 175.005 86.8033C175.028 86.7527 175.062 86.7072 175.103 86.6694C175.144 86.6297 175.193 86.5989 175.246 86.5792C175.3 86.5596 175.358 86.5514 175.415 86.5554C178.124 86.6409 202.016 87.3914 203.877 88.5314C203.934 88.5632 203.981 88.6091 204.014 88.6644C204.189 88.9304 221.875 116.214 227.292 138.425C232.71 160.636 230.566 211.11 230.547 211.575C230.551 211.632 230.543 211.689 230.523 211.743C230.503 211.796 230.472 211.845 230.432 211.886C230.391 211.928 230.342 211.96 230.288 211.982C230.234 212.003 230.176 212.014 230.118 212.012ZM215.502 211.176H229.699C229.884 206.35 231.58 159.677 226.444 138.625C221.212 117.174 204.472 90.9634 203.332 89.2249C201.636 88.4744 185.841 87.7334 175.805 87.4294C175.678 93.9939 174.158 173.879 176.273 209.466H188.725C189.807 204.878 201.724 153.416 199.571 134.863C199.563 134.76 199.594 134.658 199.658 134.577C199.723 134.495 199.816 134.44 199.92 134.421C200.023 134.402 200.131 134.421 200.221 134.475C200.311 134.528 200.378 134.612 200.409 134.711C200.564 135.243 214.83 189.459 215.512 211.176H215.502Z" fill="#22242B"/>
<path d="M223.667 34.561C223.07 33.6933 222.505 32.8193 221.972 31.939C220.05 28.7867 218.513 25.4263 217.392 21.926C216.242 18.3255 216.369 14.326 215.21 10.83C213.66 6.14648 208.282 2.41298 203.605 1.12098C193.802 -1.58652 182.928 3.86648 179.936 13.471C179.303 15.8787 178.998 18.3575 179.03 20.843C178.757 29.545 178.481 38.2438 178.202 46.9395C177.949 55.0335 176.633 63.004 181.632 70.0625C185.997 76.2375 193.656 79.5625 201.285 80.5125C212.403 81.89 224.807 78.0045 230.703 68.7135C232.354 66.072 233.433 63.129 233.874 60.0657C234.314 57.0023 234.107 53.8834 233.265 50.901C231.511 44.8305 227.263 39.8525 223.667 34.561Z" fill="#FAFAFA"/>
<path d="M205.631 81.2171C204.175 81.2164 202.72 81.1275 201.276 80.9511C192.613 79.8776 185.344 75.9921 181.31 70.2921C176.955 64.1361 177.296 57.4671 177.646 50.3991C177.715 49.2401 177.773 48.0811 177.802 46.9126L178.64 20.8161C178.606 18.2923 178.914 15.7752 179.556 13.3301C182.567 3.68762 193.656 -2.08838 203.78 0.704624C208.34 1.96812 214.011 5.62562 215.677 10.6986C216.223 12.5336 216.598 14.4127 216.798 16.3131C216.991 18.1672 217.35 20.0013 217.87 21.7946C218.981 25.2635 220.502 28.5949 222.401 31.7221C222.888 32.5201 223.434 33.3751 224.086 34.3251C224.837 35.4271 225.616 36.5291 226.396 37.6216C229.319 41.6971 232.33 45.9246 233.743 50.7886C234.599 53.8301 234.809 57.01 234.36 60.1334C233.911 63.2568 232.812 66.2579 231.131 68.9526C225.577 77.6451 214.985 81.2171 205.631 81.2171ZM198.528 0.866126C190.47 0.866126 182.782 5.95813 180.414 13.5866C179.792 15.9574 179.494 18.3978 179.527 20.8446L178.699 46.9316C178.699 48.1096 178.601 49.2781 178.543 50.4466C178.192 57.3531 177.861 63.8796 182.041 69.7981C185.939 75.2986 192.984 79.0416 201.383 80.0866C211.37 81.3311 224.203 78.1866 230.371 68.4966C231.977 65.9039 233.024 63.0191 233.448 60.0185C233.872 57.0179 233.664 53.9646 232.837 51.0451C231.472 46.2951 228.5 42.1531 225.626 38.1346C224.837 37.0326 224.047 35.9306 223.287 34.8191C222.635 33.8691 222.079 32.9951 221.582 32.1876C219.649 29.0038 218.103 25.6117 216.973 22.0796C216.435 20.2371 216.063 18.352 215.862 16.4461C215.672 14.5972 215.31 12.7688 214.781 10.9836C213.28 6.43313 207.96 2.79463 203.488 1.55963C201.859 1.10506 200.173 0.8717 198.479 0.866126H198.528Z" fill="#22242B"/>
<path d="M195.098 41.8959C195.098 41.8959 182.333 48.8974 179.858 60.9529C177.383 73.0084 180.16 100.083 180.16 100.083L211.751 98.8009C211.751 98.8009 208.662 64.6674 211.751 55.1009C214.839 45.5344 214.742 42.8554 211.751 41.9054C208.759 40.9554 200.642 35.9014 195.098 41.8959Z" fill="#FAFAFA"/>
<path d="M180.16 100.521C180.05 100.519 179.944 100.478 179.863 100.404C179.782 100.33 179.732 100.23 179.722 100.122C179.722 99.8564 176.964 72.8574 179.42 60.8684C181.817 49.2024 193.812 42.1249 194.815 41.5549C199.687 36.3774 206.44 39.2369 210.084 40.7759C210.796 41.0799 211.419 41.3364 211.887 41.4884C215.239 42.5524 215.307 45.5069 212.169 55.2254C209.149 64.6114 212.169 98.4219 212.169 98.7639C212.178 98.881 212.139 98.9967 212.062 99.0869C212.022 99.1311 211.972 99.1666 211.917 99.1912C211.862 99.2157 211.802 99.2287 211.741 99.2294L180.16 100.512V100.521ZM201.734 39.4459C200.537 39.422 199.35 39.6557 198.257 40.1303C197.164 40.6048 196.192 41.3086 195.41 42.1914C195.376 42.2258 195.336 42.2547 195.293 42.2769C195.166 42.3529 182.626 49.3259 180.277 61.0394C178.007 72.0974 180.209 96.1894 180.54 99.6284L211.244 98.3839C210.874 94.1374 208.379 64.0224 211.302 54.9594C214.508 45.0129 214.011 43.0844 211.585 42.3149C211.078 42.1534 210.445 41.8874 209.714 41.5739C207.58 40.6809 204.657 39.4459 201.734 39.4459Z" fill="#22242B"/>
<path d="M195.458 37.8699C195.458 37.8699 196.433 39.2569 194.192 44.0449C192.058 47.9779 189.846 65.7144 189.388 71.7849C188.482 83.9164 185.266 163.146 185.266 163.146L163.732 161.636C163.732 161.636 173.301 70.9204 175.425 60.3374C176.371 55.1773 178.733 50.3634 182.261 46.4074C185.788 42.4514 190.349 39.5011 195.458 37.8699Z" fill="#FE6A32"/>
<path d="M191.873 39.2555C191.873 39.2555 181.564 42.9605 177.432 46.7225C173.301 50.4845 155.362 83.0505 155.362 83.0505L167.055 89.083L181.271 72.344" fill="#FE6A32"/>
<path d="M171.245 83.4574C171.06 83.4574 170.767 83.3719 170.621 82.8589C170.594 82.7482 170.611 82.6314 170.669 82.5325C170.727 82.4336 170.821 82.3601 170.933 82.3269C171.026 82.3031 171.123 82.3031 171.215 82.3269C172.258 79.8379 174.636 65.5689 175.971 56.6009C175.979 56.5448 175.998 56.4908 176.028 56.442C176.058 56.3932 176.097 56.3507 176.144 56.3167C176.19 56.2827 176.243 56.2581 176.3 56.2441C176.356 56.2301 176.415 56.227 176.472 56.2351C176.53 56.2433 176.585 56.2624 176.635 56.2913C176.685 56.3203 176.729 56.3586 176.764 56.404C176.799 56.4495 176.824 56.5011 176.838 56.5561C176.853 56.6111 176.856 56.6683 176.848 56.7244C172.891 83.3244 171.722 83.4194 171.274 83.4479L171.245 83.4574Z" fill="#22242B"/>
<path d="M194.153 34.6304L194.094 44.0448C194.094 44.0448 195.069 49.3078 200.915 47.7024C202.648 47.2153 204.247 46.3569 205.596 45.1899C206.944 44.0229 208.008 42.5768 208.71 40.9573L208.048 24.6554C207.275 21.8062 206.946 18.8599 207.073 15.9154C199.931 15.8014 194.318 10.5479 194.318 10.5479C194.318 10.5479 191.863 14.1389 190.801 15.2979C189.941 16.1512 189.198 17.1091 188.589 18.1479C187.615 19.9529 187.615 22.2234 187.683 24.2279C187.707 26.6068 187.951 28.9788 188.414 31.3149C189.407 35.7229 194.153 34.6304 194.153 34.6304Z" fill="#FAFAFA"/>
<path d="M198.869 48.4409C197.897 48.458 196.94 48.2042 196.111 47.7094C194.852 46.8625 193.973 45.5775 193.656 44.1184L193.714 35.1409C192.441 35.3076 191.146 35.0605 190.031 34.4379C189.498 34.0882 189.045 33.6353 188.7 33.1074C188.355 32.5794 188.124 31.9878 188.024 31.3694C187.552 29.0091 187.307 26.611 187.293 24.2064C187.244 22.3064 187.186 19.8459 188.267 17.9079C188.884 16.8297 189.64 15.8334 190.518 14.9439C191.551 13.8419 193.968 10.2984 193.997 10.2699C194.03 10.2149 194.077 10.1689 194.133 10.1357C194.189 10.1026 194.253 10.0834 194.318 10.0799C194.382 10.0715 194.447 10.0774 194.507 10.0971C194.568 10.1169 194.624 10.15 194.669 10.1939C194.728 10.2414 200.253 15.3334 207.132 15.4379C207.19 15.4387 207.248 15.4509 207.301 15.4737C207.355 15.4965 207.403 15.5296 207.444 15.5709C207.487 15.6134 207.521 15.6637 207.545 15.7192C207.568 15.7746 207.58 15.834 207.58 15.8939C207.446 18.5489 207.712 21.2086 208.369 23.7884C208.454 24.058 208.513 24.3347 208.545 24.6149C208.545 24.7194 209.207 40.9169 209.207 40.9169C209.217 40.9703 209.217 41.025 209.207 41.0784C208.486 42.767 207.383 44.2752 205.981 45.4908C204.58 46.7063 202.914 47.5978 201.11 48.0989C200.383 48.3154 199.629 48.4305 198.869 48.4409ZM194.543 44.0424C194.673 44.6939 194.953 45.3084 195.36 45.8403C195.768 46.3723 196.292 46.8081 196.896 47.1155C197.499 47.423 198.166 47.5941 198.847 47.6163C199.527 47.6386 200.204 47.5113 200.827 47.2439C202.479 46.7781 204.006 45.9628 205.298 44.8561C206.589 43.7493 207.615 42.3783 208.301 40.8409L207.638 24.6149C207.611 24.4026 207.565 24.1929 207.502 23.9879C206.847 21.4752 206.568 18.8834 206.674 16.2929C200.642 16.0269 195.829 12.3314 194.445 11.1629C193.432 12.6737 192.339 14.1323 191.171 15.5329C190.345 16.36 189.625 17.282 189.027 18.2784C188.053 20.0169 188.131 22.2114 188.18 24.1399C188.195 26.4937 188.436 28.841 188.901 31.1509C188.977 31.6557 189.159 32.1397 189.436 32.5729C189.712 33.006 190.078 33.3789 190.509 33.6684C191.594 34.2372 192.85 34.4123 194.055 34.1624C194.121 34.1498 194.189 34.1509 194.255 34.1656C194.32 34.1803 194.382 34.2084 194.435 34.2479C194.488 34.2892 194.529 34.3413 194.558 34.4005C194.587 34.4597 194.601 34.5244 194.601 34.5899L194.543 44.0044V44.0424Z" fill="#22242B"/>
<path d="M194.211 39.256C196.592 39.2948 198.898 38.4413 200.652 36.8715C201.369 36.2229 201.932 35.4296 202.303 34.5468C202.673 33.6641 202.841 32.7132 202.796 31.7605C202.796 31.7605 198.557 34.5345 194.153 34.6105L194.211 39.256Z" fill="#22242B"/>
<path d="M194.387 39.6454H194.192C194.081 39.6405 193.977 39.5943 193.901 39.5164C193.825 39.4386 193.782 39.335 193.782 39.2274L193.724 34.6009C193.724 34.4917 193.768 34.3867 193.846 34.3086C193.924 34.2305 194.031 34.1854 194.143 34.1829C198.372 34.0879 202.523 31.4089 202.562 31.3899C202.624 31.3549 202.695 31.3364 202.766 31.3364C202.838 31.3364 202.909 31.3549 202.971 31.3899C203.038 31.4182 203.096 31.4628 203.141 31.5193C203.185 31.5758 203.214 31.6425 203.224 31.7129C203.281 32.7292 203.107 33.7452 202.717 34.689C202.326 35.6329 201.728 36.4816 200.964 37.1754C199.176 38.788 196.822 39.6718 194.387 39.6454ZM194.591 34.9999L194.64 38.7999C196.758 38.7605 198.787 37.9625 200.34 36.5579C201.488 35.4739 202.208 34.0315 202.377 32.4824C200.007 33.8824 197.348 34.752 194.591 35.0284V34.9999Z" fill="#22242B"/>
<path d="M197.573 21.0994C197.573 21.0994 194.474 25.6214 195.205 26.4099C195.936 27.1984 198.011 26.6759 198.011 26.6759" fill="#FAFAFA"/>
<path d="M196.647 27.2959C196.33 27.3215 196.012 27.2842 195.71 27.1862C195.409 27.0882 195.131 26.9316 194.893 26.7259C194.046 25.8329 195.985 22.6884 197.222 20.8929C197.285 20.801 197.384 20.7374 197.495 20.716C197.607 20.6946 197.722 20.7172 197.816 20.7789C197.911 20.8424 197.977 20.9398 197.999 21.05C198.021 21.1602 197.997 21.2744 197.933 21.3679C196.462 23.5054 195.342 25.7474 195.536 26.1749C195.946 26.6119 197.31 26.4504 197.904 26.2984C197.959 26.2841 198.017 26.2807 198.073 26.2884C198.129 26.296 198.184 26.3145 198.233 26.3428C198.282 26.3711 198.324 26.4086 198.358 26.4532C198.392 26.4977 198.417 26.5485 198.43 26.6024C198.457 26.7106 198.44 26.8248 198.381 26.9206C198.323 27.0164 198.229 27.0863 198.119 27.1154C197.637 27.2301 197.143 27.2906 196.647 27.2959Z" fill="#22242B"/>
<path d="M193.698 20.3089C193.72 19.7689 193.498 19.322 193.202 19.3106C192.907 19.2993 192.649 19.7279 192.627 20.2679C192.606 20.8079 192.828 21.2548 193.123 21.2661C193.419 21.2774 193.677 20.8489 193.698 20.3089Z" fill="#22242B"/>
<path d="M201.052 19.4241C201.074 18.8841 200.852 18.4372 200.556 18.4259C200.261 18.4145 200.003 18.8431 199.981 19.3831C199.96 19.9231 200.182 20.37 200.477 20.3814C200.773 20.3927 201.031 19.9641 201.052 19.4241Z" fill="#22242B"/>
<path d="M195.458 29.0729L197.933 28.4554C197.933 28.4554 198.44 31.9704 197.047 32.2554C195.653 32.5404 195.458 29.0729 195.458 29.0729Z" fill="#FAFAFA"/>
<path d="M196.862 32.7197C196.611 32.7212 196.368 32.6409 196.17 32.4917C195.195 31.7602 195.03 29.3567 195.01 29.0907C195.005 28.9942 195.034 28.8989 195.093 28.8209C195.151 28.743 195.236 28.6872 195.332 28.6632L197.807 28.0457C197.865 28.0303 197.926 28.0272 197.986 28.0364C198.046 28.0457 198.103 28.0672 198.153 28.0995C198.204 28.1318 198.247 28.1742 198.28 28.2239C198.312 28.2735 198.334 28.3294 198.343 28.3877C198.43 29.0432 198.82 32.3112 197.125 32.6912C197.038 32.7101 196.95 32.7196 196.862 32.7197ZM195.887 29.3852C195.902 30.2549 196.18 31.1009 196.686 31.8172C196.722 31.8372 196.762 31.8478 196.803 31.8478C196.844 31.8478 196.884 31.8372 196.92 31.8172C197.524 31.6842 197.641 30.1547 197.534 28.9672L195.887 29.3852Z" fill="#22242B"/>
<path d="M204.862 19.8193C205.228 18.6475 205.842 17.5634 206.664 16.6368C207.084 16.1786 207.637 15.8553 208.249 15.7094C208.861 15.5636 209.505 15.6021 210.094 15.8198C211.332 16.4183 211.751 17.9573 211.751 19.3063C211.708 20.8441 211.422 22.3663 210.903 23.8188C210.676 24.7019 210.219 25.5132 209.578 26.1748C209.249 26.4955 208.822 26.7032 208.361 26.7666C207.901 26.83 207.432 26.7457 207.025 26.5263" fill="#FAFAFA"/>
<path d="M207.97 27.2286C207.545 27.2357 207.13 27.1127 206.781 26.8771C206.732 26.8465 206.689 26.8064 206.656 26.7591C206.623 26.7119 206.601 26.6586 206.59 26.6025C206.579 26.5465 206.58 26.4888 206.592 26.4331C206.605 26.3774 206.63 26.3248 206.664 26.2786C206.696 26.2315 206.738 26.1911 206.786 26.1598C206.835 26.1285 206.889 26.1069 206.946 26.0963C207.004 26.0857 207.062 26.0863 207.119 26.098C207.176 26.1097 207.23 26.1324 207.278 26.1646C207.602 26.3271 207.97 26.3843 208.329 26.3279C208.689 26.2715 209.02 26.1044 209.275 25.8511C209.877 25.2498 210.301 24.5016 210.503 23.6851C211.018 22.2779 211.297 20.7992 211.331 19.3056C211.331 18.7356 211.234 16.8356 209.918 16.2086C209.412 16.0302 208.863 16.0045 208.341 16.135C207.82 16.2655 207.351 16.546 206.995 16.9401C206.219 17.8285 205.638 18.8633 205.29 19.9801C205.247 20.0866 205.162 20.1721 205.054 20.2183C204.947 20.2645 204.825 20.2677 204.715 20.2271C204.604 20.1866 204.514 20.1048 204.465 19.9998C204.416 19.8948 204.411 19.775 204.452 19.6666C204.855 18.4315 205.519 17.2924 206.401 16.3226C206.885 15.8117 207.515 15.4536 208.21 15.2945C208.904 15.1354 209.632 15.1824 210.299 15.4296C212.023 16.2561 212.247 18.4221 212.247 19.3056C212.216 20.8895 211.923 22.458 211.38 23.9511C211.135 24.9048 210.638 25.7793 209.938 26.4876C209.399 26.9649 208.698 27.2291 207.97 27.2286Z" fill="#22242B"/>
<path d="M209.266 39.1312C209.266 39.1312 206.06 64.1637 206.06 77.3877C206.06 92.5877 205.797 164.503 205.797 164.503L241.45 163.021C241.45 163.021 226.941 119.701 225.324 102.069C224.349 90.9157 223.375 60.8577 223.872 52.9347C224.369 45.0117 209.266 39.1312 209.266 39.1312Z" fill="#FE6A32"/>
<path d="M173.778 77.3885L189.485 111.712H158.987L143.679 78.158L173.778 77.3885Z" fill="#FAFAFA"/>
<path d="M189.485 112.148H158.987C158.9 112.147 158.815 112.121 158.742 112.073C158.67 112.026 158.613 111.96 158.578 111.882L143.27 78.3379C143.234 78.2755 143.215 78.2051 143.215 78.1336C143.215 78.0621 143.234 77.9918 143.27 77.9294C143.308 77.869 143.361 77.8186 143.424 77.7822C143.487 77.7459 143.557 77.7247 143.63 77.7204L173.72 76.9509C173.808 76.9447 173.897 76.9663 173.972 77.0124C174.048 77.0585 174.106 77.1268 174.139 77.2074L189.846 111.531C189.882 111.595 189.901 111.667 189.901 111.74C189.901 111.813 189.882 111.885 189.846 111.949C189.807 112.009 189.754 112.058 189.691 112.093C189.629 112.128 189.558 112.147 189.485 112.148ZM159.279 111.274H188.794L173.476 77.8249L144.351 78.5754L159.279 111.274Z" fill="#22242B"/>
<path d="M201.149 106.734C194.737 106.953 188.004 105.433 181.934 107.684L177.783 109.242C177.808 108.784 177.957 108.34 178.216 107.956C178.474 107.572 178.833 107.262 179.254 107.057C180.101 106.668 180.905 106.193 181.651 105.642L178.124 107.295C177.442 107.608 176.438 107.846 176.078 107.2C177.439 105.879 178.961 104.724 180.609 103.761C179.343 104.359 178.041 104.882 176.711 105.328C175.873 105.604 174.762 105.803 174.217 105.138C175.68 104.031 177.328 103.176 179.089 102.611L175.785 103.561C175.404 103.704 174.994 103.759 174.587 103.723C174.385 103.694 174.2 103.598 174.063 103.451C173.926 103.303 173.846 103.114 173.837 102.915C173.871 102.751 173.942 102.596 174.042 102.46C174.143 102.324 174.272 102.211 174.421 102.127C176.661 100.46 179.254 99.3011 182.012 98.7354C181.749 98.0514 180.375 94.4034 180.872 93.7764C181.369 93.1494 183.23 96.5029 186.143 96.8354C189.057 97.1679 198.937 97.6239 198.937 97.6239" fill="#FAFAFA"/>
<path d="M177.783 109.708C177.7 109.709 177.618 109.686 177.549 109.641C177.488 109.608 177.437 109.56 177.401 109.502C177.365 109.443 177.346 109.377 177.344 109.309C177.312 108.833 177.438 108.36 177.705 107.96C176.731 108.235 176.029 108.055 175.688 107.437C175.64 107.356 175.621 107.261 175.635 107.168C175.65 107.075 175.696 106.989 175.766 106.924C176.214 106.487 176.682 106.069 177.169 105.661L176.838 105.775C175.444 106.24 174.441 106.136 173.856 105.461C173.777 105.368 173.739 105.249 173.749 105.129C173.756 105.071 173.776 105.015 173.806 104.964C173.836 104.914 173.876 104.87 173.924 104.834C174.19 104.624 174.466 104.428 174.752 104.245H174.441C174.132 104.2 173.851 104.049 173.647 103.819C173.444 103.589 173.331 103.295 173.33 102.991C173.368 102.765 173.456 102.55 173.587 102.36C173.718 102.17 173.889 102.009 174.09 101.889C176.242 100.28 178.719 99.1336 181.359 98.5264C179.839 94.4034 180.287 93.8334 180.462 93.6149C180.519 93.5416 180.591 93.4808 180.673 93.4366C180.755 93.3923 180.846 93.3657 180.94 93.3584C181.378 93.3584 181.768 93.6909 182.421 94.3084C183.383 95.4139 184.685 96.1869 186.133 96.5124C188.998 96.8354 198.801 97.2819 198.898 97.2914C199.004 97.3068 199.101 97.3589 199.172 97.4383C199.242 97.5176 199.28 97.6189 199.28 97.7237C199.28 97.8284 199.242 97.9297 199.172 98.009C199.101 98.0884 199.004 98.1405 198.898 98.1559C198.489 98.1559 188.959 97.6999 186.065 97.3769C184.204 97.1584 182.782 95.8189 181.836 94.9259C181.622 94.7264 181.359 94.4794 181.184 94.3369C181.377 95.8371 181.791 97.3023 182.411 98.6879C182.44 98.7438 182.456 98.8057 182.456 98.8684C182.456 98.9311 182.44 98.993 182.411 99.0489C182.38 99.1045 182.337 99.1528 182.285 99.1905C182.233 99.2283 182.173 99.2545 182.109 99.2674C179.418 99.8161 176.888 100.946 174.704 102.573C174.519 102.716 174.304 102.896 174.285 103.048C174.265 103.2 174.47 103.352 174.675 103.4C175.007 103.423 175.34 103.371 175.649 103.248L178.962 102.298C179.018 102.28 179.076 102.274 179.134 102.279C179.193 102.284 179.249 102.3 179.301 102.326C179.353 102.353 179.399 102.389 179.436 102.433C179.473 102.477 179.501 102.528 179.517 102.583C179.551 102.691 179.541 102.808 179.488 102.909C179.436 103.01 179.345 103.088 179.235 103.124C177.735 103.607 176.319 104.309 175.035 105.205C175.569 105.276 176.113 105.21 176.614 105.015C177.944 104.576 179.245 104.059 180.511 103.466C180.615 103.412 180.736 103.4 180.848 103.433C180.961 103.466 181.055 103.541 181.11 103.642C181.166 103.743 181.178 103.861 181.144 103.971C181.111 104.08 181.034 104.172 180.93 104.226C179.46 105.088 178.091 106.105 176.847 107.257C177.261 107.282 177.672 107.193 178.036 107L181.554 105.347C181.65 105.303 181.76 105.293 181.863 105.319C181.966 105.346 182.056 105.406 182.119 105.49C182.179 105.575 182.206 105.68 182.193 105.783C182.181 105.886 182.13 105.981 182.051 106.05C181.557 106.465 181.006 106.811 180.414 107.076C180.131 107.219 179.849 107.361 179.586 107.523C179.111 107.793 178.72 108.184 178.455 108.653L181.866 107.371C186.124 105.775 190.713 106.003 195.156 106.221C197.164 106.316 199.229 106.421 201.227 106.354C201.345 106.352 201.46 106.394 201.547 106.472C201.634 106.55 201.687 106.657 201.695 106.772C201.697 106.887 201.654 106.997 201.574 107.081C201.494 107.164 201.383 107.214 201.266 107.219C199.229 107.295 197.134 107.219 195.108 107.086C190.762 106.877 186.26 106.649 182.187 108.178L178.036 109.736C177.951 109.754 177.862 109.744 177.783 109.708Z" fill="#22242B"/>
<path d="M223.395 48.8601C223.395 48.8601 247.024 106.582 238.254 109.499C234.659 110.696 195.001 111.741 195.001 111.741L194.026 96.3696L213.894 93.7191L223.395 48.8601Z" fill="#FE6A32"/>
<path d="M221.475 93.4905C221.363 93.4909 221.254 93.4501 221.171 93.3762C221.088 93.3023 221.036 93.2007 221.027 93.0915L217.704 55.9275C217.691 55.867 217.691 55.8046 217.705 55.7443C217.718 55.6839 217.745 55.6271 217.783 55.5775C217.82 55.5279 217.869 55.4867 217.924 55.4565C217.979 55.4264 218.04 55.408 218.103 55.4026C218.167 55.3971 218.23 55.4048 218.29 55.4251C218.35 55.4454 218.404 55.4778 218.451 55.5203C218.497 55.5627 218.533 55.6141 218.557 55.6712C218.581 55.7283 218.593 55.7898 218.591 55.8515L221.913 93.0155C221.919 93.0717 221.913 93.1283 221.895 93.1822C221.878 93.2361 221.85 93.2861 221.813 93.3294C221.776 93.3726 221.73 93.4083 221.679 93.4343C221.628 93.4604 221.572 93.4762 221.514 93.481L221.475 93.4905Z" fill="#22242B"/>
<path d="M200.477 113.147C200.37 113.132 200.273 113.08 200.203 113.001C200.133 112.921 200.094 112.82 200.094 112.715C200.094 112.61 200.133 112.509 200.203 112.43C200.273 112.351 200.37 112.298 200.477 112.283L227.565 110.383C227.623 110.378 227.682 110.384 227.738 110.401C227.794 110.419 227.846 110.447 227.89 110.484C227.935 110.521 227.971 110.567 227.997 110.618C228.023 110.669 228.039 110.725 228.042 110.782C228.051 110.896 228.012 111.009 227.936 111.096C227.859 111.184 227.75 111.238 227.633 111.247L200.545 113.147H200.477Z" fill="#22242B"/>
<path d="M151.24 101.481C151.425 102.013 151.659 102.545 151.825 103.01C152.156 104.13 152.754 105.159 153.569 106.012C154.585 106.837 155.83 107.349 157.145 107.485C158.587 107.722 160.02 107.969 161.462 108.235C162.185 108.464 162.971 108.41 163.654 108.083C163.72 108.048 163.778 108.001 163.825 107.944C163.872 107.887 163.907 107.821 163.927 107.751C163.931 107.643 163.907 107.536 163.857 107.44C163.808 107.344 163.735 107.261 163.644 107.2C162.056 105.794 159.562 105.936 157.739 104.834C159.234 105.243 160.792 105.384 162.339 105.252C162.731 105.263 163.121 105.183 163.475 105.018C163.829 104.852 164.138 104.607 164.375 104.302C162.426 102.991 159.766 103.466 157.632 102.507C159.494 102.86 161.423 102.648 163.157 101.899C163.459 101.775 163.8 101.414 163.566 101.196C163.467 101.119 163.342 101.082 163.216 101.091L156.395 100.683C157.707 100.672 159.001 100.38 160.185 99.8276C160.809 99.5331 161.462 99.0676 161.52 98.3931C161.537 98.2693 161.505 98.1441 161.432 98.0416C161.296 97.8801 161.043 97.8991 160.838 97.9276C159.971 98.0511 156.404 98.5451 155.469 98.7066C155.08 98.8263 154.67 98.867 154.265 98.8261C153.859 98.7853 153.467 98.6637 153.111 98.4691C152.788 98.1908 152.526 97.8514 152.341 97.4716C151.944 97.7661 151.613 98.136 151.367 98.5589C151.121 98.9818 150.965 99.4489 150.909 99.9321C150.927 100.463 151.039 100.987 151.24 101.481Z" fill="#FAFAFA"/>
<path d="M162.572 108.797C162.173 108.785 161.775 108.74 161.384 108.664C159.942 108.398 158.461 108.151 157.067 107.913C155.666 107.769 154.341 107.216 153.267 106.327C152.402 105.424 151.765 104.338 151.406 103.154C151.338 102.954 151.25 102.745 151.162 102.536C151.075 102.327 150.928 101.928 150.821 101.586C150.607 101.05 150.491 100.48 150.48 99.9045C150.535 99.3555 150.705 98.8233 150.98 98.3412C151.255 97.859 151.629 97.4372 152.078 97.102C152.129 97.0624 152.189 97.0341 152.252 97.0193C152.316 97.0044 152.382 97.0033 152.446 97.0159C152.51 97.0286 152.571 97.0548 152.623 97.0926C152.676 97.1305 152.719 97.1791 152.751 97.235C152.848 97.4792 152.996 97.7012 153.185 97.887C153.374 98.0728 153.601 98.2185 153.851 98.3148C154.1 98.4112 154.368 98.4561 154.636 98.4469C154.905 98.4376 155.168 98.3743 155.411 98.261C156.141 98.128 158.47 97.7955 159.854 97.6055L160.828 97.4725C161 97.4331 161.179 97.436 161.349 97.4807C161.519 97.5255 161.675 97.6108 161.803 97.729C161.88 97.8211 161.937 97.9276 161.97 98.0419C162.004 98.1563 162.013 98.2761 161.998 98.394C161.998 98.888 161.657 99.61 160.409 100.19L159.834 100.446L163.235 100.646C163.464 100.648 163.685 100.728 163.859 100.874C163.945 100.948 164.009 101.044 164.045 101.151C164.081 101.257 164.087 101.372 164.063 101.482C164.013 101.663 163.92 101.831 163.791 101.971C163.663 102.111 163.502 102.22 163.323 102.289C162.725 102.548 162.101 102.745 161.462 102.878C162.584 102.991 163.664 103.355 164.619 103.942C164.71 104.004 164.774 104.096 164.799 104.201C164.824 104.307 164.809 104.417 164.755 104.512C164.488 104.883 164.129 105.183 163.712 105.384C163.295 105.585 162.833 105.68 162.368 105.662L161.725 105.709C162.539 105.932 163.293 106.324 163.937 106.859C164.086 106.967 164.203 107.112 164.276 107.279C164.35 107.446 164.377 107.628 164.356 107.809C164.326 107.938 164.269 108.059 164.189 108.165C164.108 108.272 164.006 108.36 163.888 108.426C163.498 108.676 163.039 108.806 162.572 108.797ZM151.659 101.339C151.766 101.643 151.883 101.938 151.99 102.213C152.098 102.489 152.176 102.66 152.244 102.859C152.556 103.918 153.112 104.893 153.871 105.709C154.826 106.469 155.987 106.941 157.213 107.068C158.665 107.305 160.136 107.552 161.549 107.818C162.159 108.015 162.822 107.985 163.41 107.733L163.488 107.676C163.443 107.625 163.394 107.578 163.342 107.533C162.45 106.87 161.407 106.427 160.302 106.241C159.324 106.034 158.381 105.688 157.506 105.215C157.419 105.158 157.355 105.073 157.325 104.975C157.296 104.877 157.303 104.772 157.344 104.678C157.386 104.585 157.46 104.508 157.554 104.462C157.647 104.416 157.754 104.404 157.856 104.427C159.3 104.824 160.806 104.96 162.3 104.826C162.793 104.821 163.276 104.683 163.693 104.427C162.719 104.002 161.678 103.744 160.614 103.667C159.527 103.571 158.46 103.321 157.447 102.926C157.347 102.881 157.267 102.803 157.223 102.704C157.178 102.606 157.172 102.496 157.206 102.394C157.239 102.292 157.31 102.205 157.405 102.151C157.5 102.097 157.612 102.078 157.72 102.099C159.489 102.431 161.321 102.232 162.972 101.529L156.385 101.14C156.327 101.137 156.271 101.124 156.219 101.1C156.166 101.076 156.119 101.042 156.081 101.001C156.042 100.96 156.011 100.911 155.992 100.858C155.972 100.805 155.963 100.749 155.966 100.693C155.971 100.581 156.019 100.475 156.1 100.396C156.181 100.317 156.29 100.27 156.405 100.266C157.653 100.252 158.883 99.9735 160.01 99.4485C160.487 99.23 161.052 98.869 161.091 98.375C161.091 98.375 161.091 98.375 160.916 98.375L159.942 98.508C158.558 98.7075 156.249 99.0305 155.528 99.154C155.078 99.289 154.605 99.33 154.138 99.2744C153.671 99.2187 153.222 99.0676 152.819 98.831C152.583 98.6482 152.382 98.4263 152.224 98.1755C151.726 98.6543 151.41 99.2842 151.328 99.9615C151.346 100.436 151.445 100.905 151.62 101.349L151.659 101.339Z" fill="#22242B"/>
<path d="M194.065 96.8076C193.955 96.8062 193.849 96.766 193.766 96.6944C193.684 96.6229 193.631 96.5248 193.617 96.4181C193.606 96.3036 193.642 96.1895 193.717 96.1006C193.791 96.0117 193.899 95.9551 194.016 95.9431L224.749 92.6181C224.866 92.6075 224.983 92.6424 225.075 92.7153C225.166 92.7882 225.224 92.8932 225.236 93.0076C225.243 93.0638 225.238 93.1207 225.222 93.1751C225.206 93.2295 225.179 93.2803 225.143 93.3245C225.107 93.3687 225.062 93.4054 225.011 93.4325C224.96 93.4597 224.904 93.4767 224.846 93.4826L194.114 96.7981L194.065 96.8076Z" fill="#22242B"/>
<path d="M219 147.498C218.083 147.516 217.172 147.34 216.331 146.983C215.49 146.625 214.738 146.094 214.128 145.427C211.205 141.978 212.023 130.341 212.052 129.847C212.062 129.738 212.114 129.636 212.197 129.562C212.28 129.488 212.388 129.447 212.501 129.448H226.873C226.979 129.463 227.076 129.515 227.147 129.595C227.217 129.674 227.255 129.775 227.255 129.88C227.255 129.985 227.217 130.086 227.147 130.165C227.076 130.245 226.979 130.297 226.873 130.312H212.939C212.813 132.402 212.384 142.026 214.83 144.876C215.581 145.667 216.553 146.226 217.627 146.484C218.701 146.743 219.828 146.689 220.871 146.329C222.576 145.74 225.45 143.812 225.567 137.504C225.57 137.392 225.617 137.286 225.699 137.208C225.781 137.129 225.891 137.086 226.006 137.086C226.123 137.088 226.235 137.135 226.317 137.217C226.398 137.299 226.444 137.408 226.444 137.523C226.318 144.353 223.083 146.481 221.163 147.146C220.467 147.379 219.736 147.498 219 147.498Z" fill="#22242B"/>
<path d="M175.6 145.325C174.832 145.315 174.078 145.116 173.41 144.746C172.742 144.375 172.181 143.845 171.781 143.206C169.51 139.767 170.163 128.168 170.192 127.674C170.202 127.563 170.253 127.461 170.336 127.385C170.419 127.31 170.527 127.267 170.64 127.265H181.651C181.77 127.265 181.884 127.311 181.968 127.393C182.052 127.475 182.099 127.586 182.099 127.702C182.099 127.818 182.052 127.929 181.968 128.011C181.884 128.093 181.77 128.139 181.651 128.139H171.059C170.962 130.248 170.64 139.881 172.521 142.741C172.919 143.389 173.521 143.894 174.237 144.182C174.954 144.469 175.746 144.524 176.497 144.337C178.962 143.653 180.472 140.28 180.54 135.331C180.542 135.273 180.554 135.217 180.578 135.164C180.602 135.111 180.636 135.064 180.679 135.024C180.721 134.985 180.771 134.953 180.826 134.933C180.881 134.912 180.939 134.902 180.998 134.903C181.116 134.906 181.227 134.953 181.309 135.034C181.391 135.116 181.437 135.226 181.437 135.34C181.32 143.064 178.114 144.84 176.74 145.173C176.369 145.274 175.986 145.325 175.6 145.325Z" fill="#22242B"/>
<path d="M208.749 64.1656C210.235 64.1656 211.439 62.9917 211.439 61.5436C211.439 60.0955 210.235 58.9216 208.749 58.9216C207.264 58.9216 206.06 60.0955 206.06 61.5436C206.06 62.9917 207.264 64.1656 208.749 64.1656Z" fill="#22242B"/>
<path d="M208.749 64.5812C208.133 64.5793 207.531 64.3994 207.02 64.0643C206.508 63.7291 206.11 63.2537 205.876 62.698C205.641 62.1424 205.581 61.5314 205.702 60.9423C205.824 60.3533 206.121 59.8125 206.558 59.3883C206.994 58.9641 207.55 58.6755 208.154 58.5589C208.759 58.4424 209.385 58.5032 209.955 58.7335C210.524 58.9639 211.01 59.3535 211.352 59.8533C211.695 60.353 211.877 60.9404 211.877 61.5412C211.877 61.9412 211.796 62.3373 211.639 62.7068C211.482 63.0762 211.251 63.4118 210.96 63.6942C210.67 63.9766 210.325 64.2003 209.946 64.3525C209.566 64.5048 209.16 64.5825 208.749 64.5812ZM208.749 59.3372C208.302 59.3372 207.865 59.4665 207.493 59.7086C207.122 59.9508 206.832 60.295 206.661 60.6978C206.49 61.1005 206.445 61.5437 206.532 61.9712C206.619 62.3987 206.835 62.7914 207.151 63.0997C207.467 63.4079 207.87 63.6178 208.308 63.7029C208.747 63.7879 209.201 63.7443 209.614 63.5774C210.028 63.4106 210.381 63.1281 210.629 62.7657C210.877 62.4032 211.01 61.9771 211.01 61.5412C211.007 60.9574 210.768 60.3983 210.345 59.9855C209.922 59.5727 209.348 59.3397 208.749 59.3372Z" fill="#22242B"/>
<path d="M209.977 62.864C211.161 62.864 212.121 61.9282 212.121 60.774C212.121 59.6197 211.161 58.684 209.977 58.684C208.793 58.684 207.833 59.6197 207.833 60.774C207.833 61.9282 208.793 62.864 209.977 62.864Z" fill="#22242B"/>
<path d="M209.977 63.2795C209.468 63.2795 208.971 63.1325 208.548 62.8569C208.125 62.5813 207.795 62.1896 207.601 61.7313C207.406 61.273 207.355 60.7688 207.454 60.2823C207.553 59.7958 207.798 59.3489 208.158 58.9981C208.518 58.6474 208.976 58.4085 209.475 58.3117C209.974 58.215 210.491 58.2646 210.962 58.4545C211.432 58.6443 211.833 58.9657 212.116 59.3782C212.399 59.7906 212.55 60.2755 212.55 60.7715C212.55 61.4367 212.279 62.0746 211.796 62.545C211.314 63.0153 210.659 63.2795 209.977 63.2795ZM209.977 59.0996C209.638 59.0977 209.305 59.1941 209.022 59.3767C208.738 59.5593 208.517 59.8197 208.386 60.1251C208.255 60.4304 208.219 60.7669 208.284 61.0919C208.349 61.4168 208.512 61.7156 208.751 61.9504C208.991 62.1852 209.296 62.3454 209.629 62.4107C209.962 62.476 210.307 62.4434 210.621 62.3172C210.935 62.1909 211.204 61.9766 211.393 61.7014C211.581 61.4263 211.682 61.1026 211.682 60.7715C211.682 60.3297 211.503 59.9059 211.183 59.5926C210.864 59.2793 210.43 59.1021 209.977 59.0996Z" fill="#22242B"/>
<path d="M188.267 54.3322H188.219C188.107 54.3202 188.004 54.2656 187.933 54.1802C187.862 54.0949 187.828 53.9856 187.839 53.8762C187.907 53.2302 189.622 38.2012 196.823 36.7762C196.935 36.7565 197.051 36.7802 197.145 36.8423C197.24 36.9043 197.306 36.9999 197.329 37.1087C197.352 37.217 197.331 37.3298 197.268 37.4224C197.206 37.515 197.109 37.5798 196.998 37.6027C190.411 38.9042 188.706 53.8192 188.696 53.9712C188.68 54.071 188.628 54.1621 188.55 54.2282C188.471 54.2943 188.371 54.3311 188.267 54.3322Z" fill="#22242B"/>
<path d="M209.266 60.6312H209.217C209.153 60.6253 209.091 60.607 209.035 60.5774C208.979 60.5477 208.929 60.5073 208.889 60.4586C208.849 60.4098 208.819 60.3537 208.802 60.2936C208.785 60.2335 208.78 60.1706 208.788 60.1087C210.591 44.5192 208.32 38.4107 208.301 38.3537C208.252 38.2403 208.252 38.1127 208.299 37.9988C208.346 37.8849 208.438 37.7939 208.554 37.7457C208.675 37.7024 208.807 37.7071 208.924 37.7587C209.041 37.8102 209.132 37.9045 209.178 38.0212C209.275 38.2682 211.555 44.3482 209.724 60.2132C209.71 60.3243 209.657 60.4272 209.573 60.5036C209.489 60.5801 209.38 60.6253 209.266 60.6312Z" fill="#22242B"/>
<path d="M192.798 71.459C192.67 71.4566 192.547 71.4057 192.457 71.3172C192.366 71.2286 192.314 71.1092 192.311 70.984C192.311 70.858 192.362 70.7372 192.454 70.6481C192.545 70.559 192.669 70.509 192.798 70.509C193.205 70.509 193.595 70.3522 193.883 70.0727C194.172 69.7933 194.335 69.4139 194.338 69.0175V59.8025C194.335 58.3671 193.749 56.9913 192.708 55.9763C191.667 54.9613 190.256 54.39 188.784 54.3875H187.751C186.279 54.39 184.867 54.9613 183.826 55.9763C182.785 56.9913 182.199 58.3671 182.197 59.8025V69.0175C182.199 69.4123 182.361 69.7902 182.648 70.0694C182.934 70.3486 183.322 70.5065 183.727 70.509C183.856 70.509 183.98 70.559 184.071 70.6481C184.163 70.7372 184.214 70.858 184.214 70.984C184.214 71.11 184.163 71.2308 184.071 71.3199C183.98 71.409 183.856 71.459 183.727 71.459C183.063 71.4565 182.428 71.1985 181.959 70.7411C181.49 70.2838 181.225 69.6643 181.222 69.0175V59.8025C181.225 58.1152 181.914 56.4977 183.137 55.3045C184.361 54.1114 186.02 53.44 187.751 53.4375H188.784C190.514 53.44 192.174 54.1114 193.397 55.3045C194.621 56.4977 195.31 58.1152 195.312 59.8025V69.0175C195.31 69.6659 195.044 70.2869 194.573 70.7445C194.101 71.2021 193.463 71.459 192.798 71.459Z" fill="#22242B"/>
<path d="M184.915 70.0534C184.915 69.7754 184.684 69.5499 184.399 69.5499C184.114 69.5499 183.883 69.7754 183.883 70.0534V71.9724C183.883 72.2505 184.114 72.4759 184.399 72.4759C184.684 72.4759 184.915 72.2505 184.915 71.9724V70.0534Z" fill="#22242B"/>
<path d="M184.399 72.8965C184.141 72.8965 183.893 72.7965 183.71 72.6183C183.527 72.4401 183.425 72.1985 183.425 71.9465V70.0466C183.425 69.7946 183.527 69.553 183.71 69.3748C183.893 69.1966 184.141 69.0966 184.399 69.0966C184.657 69.0966 184.905 69.1966 185.088 69.3748C185.271 69.553 185.373 69.7946 185.373 70.0466V71.9465C185.373 72.1985 185.271 72.4401 185.088 72.6183C184.905 72.7965 184.657 72.8965 184.399 72.8965ZM184.399 69.9706C184.376 69.9706 184.353 69.9796 184.337 69.9956C184.321 70.0116 184.311 70.0334 184.311 70.0561V71.9561C184.311 72.0511 184.477 72.0511 184.477 71.9561V70.0561C184.477 70.0349 184.469 70.0145 184.455 69.9987C184.44 69.9829 184.421 69.9729 184.399 69.9706Z" fill="#22242B"/>
<path d="M193.101 70.0534C193.101 69.7754 192.869 69.5499 192.584 69.5499C192.299 69.5499 192.068 69.7754 192.068 70.0534V71.9724C192.068 72.2505 192.299 72.4759 192.584 72.4759C192.869 72.4759 193.101 72.2505 193.101 71.9724V70.0534Z" fill="#22242B"/>
<path d="M192.584 72.896C192.326 72.896 192.078 72.7959 191.895 72.6177C191.712 72.4396 191.61 72.1979 191.61 71.946V70.046C191.663 69.8405 191.784 69.6582 191.955 69.5279C192.127 69.3977 192.338 69.3269 192.555 69.3269C192.772 69.3269 192.983 69.3977 193.154 69.5279C193.326 69.6582 193.447 69.8405 193.5 70.046V71.946C193.5 72.1883 193.406 72.4217 193.236 72.5983C193.065 72.775 192.832 72.8814 192.584 72.896ZM192.584 69.97C192.561 69.97 192.539 69.979 192.522 69.995C192.506 70.011 192.496 70.0328 192.496 70.0555V71.9555C192.496 72.0505 192.672 72.0505 192.672 71.9555V70.0555C192.672 70.0328 192.663 70.011 192.646 69.995C192.63 69.979 192.607 69.97 192.584 69.97Z" fill="#22242B"/>
<path d="M209.977 63.3376H209.899C209.424 63.3136 208.964 63.1741 208.558 62.9319C208.153 62.6896 207.817 62.3522 207.58 61.9506C207.428 61.507 207.377 61.0361 207.433 60.5714C207.489 60.1067 207.649 59.6597 207.902 59.2621C207.968 59.1559 208.075 59.0794 208.199 59.0492C208.323 59.019 208.454 59.0375 208.564 59.1006C208.619 59.1319 208.667 59.1736 208.705 59.2232C208.743 59.2729 208.771 59.3294 208.786 59.3896C208.802 59.4498 208.805 59.5124 208.795 59.5737C208.785 59.635 208.763 59.6938 208.73 59.7466C208.56 60.0132 208.449 60.3114 208.403 60.6221C208.358 60.9329 208.38 61.2494 208.467 61.5516C208.671 61.9886 209.217 62.2736 210.084 62.3876C210.213 62.3964 210.334 62.4549 210.419 62.5502C210.504 62.6456 210.546 62.7699 210.537 62.8959C210.528 63.0218 210.468 63.1391 210.37 63.222C210.273 63.3048 210.145 63.3464 210.016 63.3376H209.977Z" fill="#FAFAFA"/>
<path d="M191.239 25.9162C190.098 25.9181 188.981 25.5896 188.031 24.9724C187.081 24.3551 186.34 23.4768 185.902 22.4488C185.464 21.4208 185.349 20.2892 185.571 19.1974C185.794 18.1055 186.343 17.1025 187.151 16.3154C187.958 15.5283 188.987 14.9925 190.107 14.7758C191.226 14.5591 192.387 14.6713 193.442 15.0981C194.496 15.525 195.397 16.2473 196.03 17.1736C196.663 18.0999 197 19.1886 196.998 20.3017C196.995 21.79 196.388 23.2166 195.308 24.269C194.229 25.3214 192.766 25.9137 191.239 25.9162ZM191.239 15.5422C190.276 15.5422 189.334 15.8208 188.533 16.3427C187.731 16.8647 187.107 17.6065 186.738 18.4745C186.369 19.3424 186.273 20.2975 186.461 21.2189C186.649 22.1403 187.113 22.9867 187.794 23.651C188.476 24.3153 189.344 24.7677 190.289 24.9509C191.234 25.1342 192.213 25.0402 193.104 24.6806C193.994 24.3211 194.755 23.7123 195.29 22.9312C195.826 22.15 196.111 21.2317 196.111 20.2922C196.111 19.0324 195.598 17.8242 194.684 16.9335C193.771 16.0427 192.531 15.5422 191.239 15.5422Z" fill="#22242B"/>
<path d="M202.231 25.0351C201.089 25.037 199.973 24.7087 199.023 24.0919C198.073 23.4751 197.332 22.5974 196.894 21.5699C196.456 20.5424 196.341 19.4113 196.562 18.3198C196.783 17.2282 197.332 16.2252 198.138 15.4377C198.945 14.6502 199.973 14.1136 201.092 13.8959C202.211 13.6781 203.371 13.7889 204.426 14.2143C205.481 14.6397 206.382 15.3605 207.016 16.2856C207.651 17.2107 207.989 18.2984 207.989 19.4111C207.987 20.9003 207.379 22.3279 206.3 23.3818C205.221 24.4356 203.758 25.0301 202.231 25.0351ZM202.231 14.6611C201.267 14.6611 200.325 14.9397 199.524 15.4616C198.723 15.9836 198.098 16.7254 197.729 17.5934C197.361 18.4613 197.264 19.4164 197.452 20.3378C197.64 21.2592 198.104 22.1056 198.786 22.7699C199.467 23.4342 200.335 23.8866 201.28 24.0698C202.225 24.2531 203.205 24.159 204.095 23.7995C204.985 23.44 205.746 22.8312 206.281 22.0501C206.817 21.2689 207.103 20.3506 207.103 19.4111C207.103 18.1513 206.589 16.9431 205.676 16.0523C204.762 15.1615 203.523 14.6611 202.231 14.6611Z" fill="#22242B"/>
<path d="M152.38 76.8472L155.001 81.2837L167.863 80.7897L165.457 76.4197L152.38 76.8472Z" fill="#22242B"/>
<path d="M154.962 81.7126C154.888 81.7115 154.814 81.6917 154.749 81.6551C154.685 81.6185 154.63 81.5664 154.592 81.5036L152.039 77.0481C152.003 76.9857 151.985 76.9154 151.985 76.8439C151.985 76.7723 152.003 76.702 152.039 76.6396C152.077 76.5781 152.13 76.5262 152.193 76.4882C152.255 76.4502 152.326 76.4272 152.4 76.4211L165.486 76.0031C165.565 76.0008 165.644 76.02 165.713 76.0586C165.781 76.0971 165.838 76.1536 165.876 76.2216L168.283 80.5916C168.316 80.6548 168.333 80.7248 168.333 80.7959C168.333 80.8669 168.316 80.9369 168.283 81.0001C168.245 81.0615 168.193 81.1129 168.13 81.1494C168.067 81.1859 167.995 81.2064 167.922 81.2091L155.06 81.7126H154.962ZM153.072 77.2381L155.206 80.8576L167.123 80.4016L165.174 76.8486L153.072 77.2381Z" fill="#22242B"/>
<path d="M159.084 74.5188C158.586 74.3479 158.043 74.3479 157.544 74.5188C157.216 74.6429 156.933 74.8606 156.733 75.1436C156.533 75.4266 156.426 75.7617 156.424 76.1053C156.443 76.5311 156.571 76.9456 156.794 77.3118C157.001 77.7045 157.286 78.0533 157.632 78.3378C158.84 79.2878 161.462 79.1453 161.354 77.1693C161.291 76.6335 161.086 76.1228 160.76 75.6873C160.365 75.1124 159.77 74.6971 159.084 74.5188Z" fill="#22242B"/>
<path d="M159.415 79.28C158.68 79.2848 157.962 79.0583 157.369 78.634C156.966 78.3176 156.634 77.9229 156.395 77.475C156.131 77.0498 155.983 76.5657 155.966 76.069C155.968 75.6402 156.104 75.222 156.354 74.8694C156.604 74.5168 156.958 74.2462 157.369 74.093C157.959 73.8902 158.602 73.8902 159.191 74.093C159.961 74.2968 160.634 74.7573 161.091 75.3945C161.463 75.8906 161.691 76.4744 161.754 77.0855C161.797 77.4689 161.719 77.8561 161.531 78.1955C161.343 78.5348 161.054 78.8104 160.702 78.9855C160.303 79.1818 159.862 79.2827 159.415 79.28ZM158.217 74.796C158.038 74.7943 157.86 74.8232 157.691 74.8815C157.446 74.9759 157.235 75.1393 157.086 75.3508C156.937 75.5623 156.856 75.8123 156.853 76.069C156.876 76.4249 156.986 76.7702 157.174 77.076C157.35 77.4213 157.595 77.7283 157.895 77.9785C158.247 78.221 158.655 78.3726 159.083 78.4192C159.511 78.4657 159.944 78.4056 160.341 78.2445C160.542 78.143 160.706 77.9837 160.81 77.7882C160.915 77.5927 160.955 77.3706 160.926 77.152C160.865 76.6908 160.684 76.2525 160.399 75.879C160.051 75.4 159.534 75.0621 158.948 74.929C158.713 74.845 158.466 74.8 158.217 74.796Z" fill="#22242B"/>
</svg>
