<svg width="19" height="20" viewBox="0 0 19 20" fill="none" xmlns="http://www.w3.org/2000/svg">
<path d="M5.00123 12.9596C4.6107 13.3501 4.6107 13.9832 5.00123 14.3738C5.39175 14.7643 6.02492 14.7643 6.41544 14.3738L5.00123 12.9596ZM12.0417 9.08333C12.0417 10.0498 11.2582 10.8333 10.2917 10.8333V12.8333C12.3627 12.8333 14.0417 11.1544 14.0417 9.08333H12.0417ZM8.54167 9.08333C8.54167 8.11684 9.32517 7.33333 10.2917 7.33333V5.33333C8.2206 5.33333 6.54167 7.01227 6.54167 9.08333H8.54167ZM10.2917 7.33333C11.2582 7.33333 12.0417 8.11684 12.0417 9.08333H14.0417C14.0417 7.01227 12.3627 5.33333 10.2917 5.33333V7.33333ZM7.64002 10.3208L5.00123 12.9596L6.41544 14.3738L9.05423 11.735L7.64002 10.3208ZM10.2917 10.8333C9.80814 10.8333 9.37201 10.6386 9.05423 10.3208L7.64002 11.735C8.31754 12.4125 9.25641 12.8333 10.2917 12.8333V10.8333ZM9.05423 10.3208C8.73645 10.003 8.54167 9.56686 8.54167 9.08333H6.54167C6.54167 10.1186 6.96249 11.0575 7.64002 11.735L9.05423 10.3208ZM16.625 10C16.625 14.0041 13.3791 17.25 9.375 17.25V19.25C14.4836 19.25 18.625 15.1086 18.625 10H16.625ZM9.375 17.25C5.37094 17.25 2.125 14.0041 2.125 10H0.125C0.125 15.1086 4.26637 19.25 9.375 19.25V17.25ZM2.125 10C2.125 5.99594 5.37094 2.75 9.375 2.75V0.75C4.26637 0.75 0.125 4.89137 0.125 10H2.125ZM9.375 2.75C13.3791 2.75 16.625 5.99594 16.625 10H18.625C18.625 4.89137 14.4836 0.75 9.375 0.75V2.75Z" fill="#B8B7BE"/>
</svg>
