<svg width="261" height="214" viewBox="0 0 261 214" fill="none" xmlns="http://www.w3.org/2000/svg">
<path d="M128.152 155.563L233.919 155.684C235.425 155.608 236.863 155.035 238.005 154.056C239.147 153.077 239.929 151.748 240.226 150.279L259.9 47.0899C260.073 46.4471 260.094 45.7731 259.961 45.1209C259.828 44.4687 259.544 43.856 259.132 43.3312C258.721 42.8063 258.192 42.3835 257.588 42.096C256.984 41.8085 256.321 41.6642 255.651 41.6743L149.884 41.5529C148.378 41.6293 146.94 42.2022 145.798 43.1811C144.656 44.16 143.874 45.489 143.577 46.9583L123.903 150.147C123.73 150.79 123.709 151.464 123.842 152.116C123.975 152.768 124.259 153.381 124.671 153.906C125.082 154.431 125.611 154.854 126.215 155.141C126.819 155.429 127.482 155.573 128.152 155.563Z" fill="#FAFAFA"/>
<path d="M233.888 156.19L128.121 156.069C127.409 156.082 126.703 155.937 126.054 155.644C125.406 155.352 124.831 154.919 124.372 154.378C123.887 153.78 123.543 153.081 123.367 152.333C123.19 151.584 123.186 150.806 123.353 150.056L143.078 46.8571C143.404 45.276 144.249 43.8472 145.481 42.7954C146.713 41.7436 148.262 41.1285 149.884 41.0468L255.651 41.1682C256.355 41.1614 257.053 41.3083 257.693 41.5987C258.334 41.8891 258.903 42.3157 259.36 42.8486C259.844 43.4492 260.188 44.1501 260.364 44.8999C260.54 45.6496 260.545 46.4291 260.378 47.181L240.725 150.38C240.398 151.966 239.548 153.398 238.31 154.451C237.072 155.503 235.516 156.115 233.888 156.19ZM128.121 155.057L233.888 155.178C235.277 155.106 236.602 154.576 237.653 153.672C238.705 152.768 239.424 151.542 239.696 150.188L259.36 46.9988C259.5 46.3938 259.503 45.7653 259.367 45.1593C259.231 44.5532 258.961 43.985 258.575 43.4964C258.209 43.0742 257.753 42.7374 257.24 42.5099C256.728 42.2825 256.171 42.17 255.61 42.1805L149.843 42.059C148.455 42.1313 147.13 42.6611 146.078 43.5649C145.027 44.4686 144.308 45.6946 144.036 47.0494L124.403 150.238C124.263 150.843 124.261 151.472 124.396 152.078C124.532 152.683 124.802 153.252 125.187 153.741C125.554 154.163 126.009 154.5 126.522 154.727C127.034 154.955 127.591 155.067 128.152 155.057H128.121Z" fill="#22242B"/>
<path d="M258.056 57.2934L141.733 57.1517C141.598 57.1517 141.469 57.0983 141.373 57.0034C141.277 56.9085 141.224 56.7798 141.224 56.6455C141.226 56.5121 141.281 56.3849 141.376 56.2905C141.471 56.1961 141.599 56.142 141.733 56.1394L258.066 56.2811C258.201 56.2811 258.33 56.3344 258.426 56.4294C258.521 56.5243 258.575 56.653 258.575 56.7872C258.572 56.9224 258.517 57.0511 258.419 57.1458C258.322 57.2404 258.192 57.2934 258.056 57.2934Z" fill="#22242B"/>
<path d="M250.25 50.7708C251.366 49.5951 251.48 47.9022 250.506 46.9895C249.531 46.0769 247.837 46.29 246.722 47.4657C245.606 48.6413 245.492 50.3342 246.466 51.2469C247.441 52.1596 249.135 51.9464 250.25 50.7708Z" fill="#B8B7BE"/>
<path d="M240.987 50.7581C242.102 49.5824 242.216 47.8895 241.242 46.9769C240.267 46.0642 238.573 46.2773 237.458 47.453C236.342 48.6286 236.228 50.3215 237.202 51.2342C238.177 52.1469 239.871 51.9337 240.987 50.7581Z" fill="#B8B7BE"/>
<path d="M231.723 50.7454C232.838 49.5697 232.952 47.8768 231.978 46.9642C231.003 46.0515 229.309 46.2646 228.194 47.4403C227.078 48.6159 226.964 50.3088 227.938 51.2215C228.913 52.1342 230.607 51.921 231.723 50.7454Z" fill="#B8B7BE"/>
<path d="M203.048 65.2498L193.053 117.654L235.437 117.705L245.432 65.3004L203.048 65.2498Z" fill="#FAFAFA"/>
<path d="M203.038 65.2497H245.432L235.447 117.654H193.053L203.038 65.2497ZM203.038 64.2375C202.798 64.2331 202.564 64.313 202.378 64.463C202.191 64.613 202.064 64.8234 202.019 65.0574L192.034 117.462C192.005 117.61 192.01 117.762 192.048 117.908C192.086 118.054 192.157 118.19 192.254 118.305C192.352 118.421 192.474 118.513 192.612 118.576C192.751 118.638 192.901 118.669 193.053 118.666H235.437C235.678 118.67 235.913 118.589 236.1 118.437C236.286 118.285 236.412 118.072 236.456 117.836L246.441 65.4319C246.468 65.2864 246.463 65.1367 246.426 64.9933C246.389 64.8499 246.321 64.7163 246.227 64.6019C246.131 64.4876 246.011 64.3957 245.875 64.3327C245.74 64.2698 245.592 64.2372 245.442 64.2375H203.058H203.038Z" fill="#22242B"/>
<path d="M233.185 78.9961C233.103 79.6776 233.172 80.3689 233.389 81.0206C233.583 81.4008 233.815 81.7603 234.082 82.0936C234.922 83.3692 235.407 84.843 235.488 86.3653C235.6 87.3954 235.461 88.4372 235.08 89.402C234.775 90.1106 234.286 90.7382 234 91.4265C233.661 92.2635 233.607 93.1881 233.848 94.0584C234.082 94.8783 234.551 95.7691 234.123 96.4979C233.954 96.736 233.724 96.9247 233.457 97.044C233.19 97.1634 232.896 97.209 232.605 97.1761C232.023 97.1026 231.453 96.9634 230.903 96.7611C227.796 95.8703 223.883 96.2955 220.623 96.0728L208.397 95.2225C206.736 95.101 204.678 94.686 204.24 93.0866C203.873 91.7403 205.197 89.4931 205.727 88.2278C206.543 86.0462 207.613 83.967 208.916 82.0329C209.669 81.1492 210.308 80.1769 210.822 79.1378C211.051 78.4496 211.245 77.7502 211.402 77.0425C212.101 75.0065 213.311 73.181 214.917 71.7382C215.954 70.6738 217.146 69.7696 218.453 69.0558C222.885 66.7681 230.251 68.3168 232.268 73.1858C232.996 75.0331 233.309 77.0161 233.185 78.9961Z" fill="#FAFAFA"/>
<path d="M232.706 97.7126H232.574C232.083 97.6717 231.6 97.5662 231.137 97.3988L230.76 97.2874C228.552 96.7939 226.287 96.5931 224.026 96.6902C222.813 96.6902 221.683 96.6902 220.582 96.6092L208.356 95.759C205.656 95.5767 204.148 94.7467 203.741 93.2486C203.394 91.9934 204.199 90.2928 204.841 88.9263C204.994 88.6023 205.136 88.3088 205.248 88.0557C206.077 85.8353 207.165 83.7188 208.488 81.7494C208.651 81.5166 208.825 81.2939 208.998 81.0712C209.536 80.4323 209.985 79.7241 210.332 78.9657C210.481 78.5598 210.601 78.1437 210.689 77.7206C210.75 77.4473 210.822 77.1841 210.893 76.9108C211.612 74.789 212.872 72.8884 214.551 71.3941C215.618 70.2844 216.852 69.3454 218.208 68.6104C219.637 67.9502 221.184 67.5805 222.759 67.5231C224.334 67.4658 225.904 67.7219 227.378 68.2763C228.551 68.6504 229.631 69.2643 230.551 70.0785C231.47 70.8926 232.208 71.889 232.717 73.0036C233.46 74.9208 233.773 76.9764 233.634 79.0264V79.1175C233.541 79.5363 233.55 79.9707 233.658 80.3857C233.766 80.8006 233.97 81.1846 234.255 81.5065L234.439 81.7696C235.338 83.1211 235.859 84.6866 235.946 86.3045C236.068 87.4285 235.911 88.5651 235.488 89.6146C235.326 89.9632 235.142 90.3013 234.938 90.6268C234.739 90.9523 234.562 91.2904 234.408 91.6391C234.119 92.3683 234.076 93.1712 234.286 93.9268C234.286 94.0887 234.388 94.2507 234.439 94.4127C234.622 94.7774 234.722 95.1776 234.733 95.5852C234.744 95.9927 234.664 96.3976 234.5 96.7712C234.305 97.0659 234.039 97.3068 233.725 97.4714C233.412 97.636 233.061 97.719 232.706 97.7126ZM223.129 68.5598C221.605 68.546 220.1 68.893 218.738 69.572C217.474 70.2574 216.323 71.1314 215.325 72.1634C213.777 73.5302 212.614 75.2747 211.952 77.2246C211.871 77.4777 211.82 77.7308 211.759 77.9838C211.655 78.4547 211.519 78.918 211.351 79.3706C210.974 80.2192 210.476 81.0099 209.874 81.719L209.375 82.377C208.109 84.2784 207.063 86.3158 206.257 88.4505C206.145 88.7238 205.992 89.0275 205.839 89.3717C205.289 90.5155 204.545 92.0946 204.821 92.9753C205.096 93.8559 206.339 94.5645 208.499 94.7163L220.725 95.5666C221.795 95.6375 222.915 95.6476 224.097 95.6476C226.459 95.5476 228.823 95.7621 231.127 96.2853L231.525 96.4068C231.907 96.5403 232.303 96.6286 232.706 96.67C232.898 96.6948 233.093 96.6695 233.271 96.5968C233.45 96.524 233.606 96.4062 233.725 96.255C233.949 95.8804 233.725 95.3338 233.572 94.7568C233.511 94.5746 233.45 94.3924 233.399 94.2203C233.13 93.2394 233.19 92.1978 233.572 91.2544C233.741 90.8592 233.938 90.4768 234.163 90.1106C234.347 89.7968 234.52 89.5032 234.663 89.1996C235.008 88.3004 235.134 87.3324 235.029 86.3754C234.962 84.9335 234.509 83.5355 233.715 82.3264L233.532 82.0835C233.31 81.799 233.122 81.4899 232.971 81.1623C232.728 80.4813 232.641 79.7551 232.717 79.0366L233.246 78.9657H232.727C232.863 77.0682 232.577 75.1642 231.891 73.3882C231.438 72.4056 230.782 71.5284 229.966 70.8135C229.15 70.0986 228.192 69.5618 227.154 69.238C225.863 68.7782 224.5 68.5519 223.129 68.5699V68.5598Z" fill="#22242B"/>
<path d="M195.936 102.521L193.053 117.704H235.447L238.331 102.571C234.836 98.411 228.967 96.9736 223.802 96.4978C221.764 96.3156 219.93 96.265 218.331 96.265H217.954C216.456 96.265 214.724 96.265 212.859 96.4776H212.768C207.398 96.9129 201.01 98.3705 195.936 102.521Z" fill="url(#paint0_linear_487_4997)"/>
<path d="M212.085 99.3828L213.379 113.554L213.766 117.684H214.724L216.68 113.544L223.353 99.4537C220.827 98.573 214.948 98.573 212.085 99.3828Z" fill="#22242B"/>
<path d="M223.374 99.4031C222.679 100.371 221.762 101.161 220.699 101.706C219.636 102.252 218.457 102.538 217.261 102.541C216.176 102.615 215.095 102.352 214.167 101.788C213.24 101.224 212.512 100.387 212.085 99.3929L214.978 87.0536H225.167L223.374 99.4031Z" fill="#FAFAFA"/>
<path d="M217.271 103.057C216.077 103.126 214.891 102.827 213.875 102.2C212.859 101.573 212.063 100.649 211.596 99.5549C211.566 99.4629 211.566 99.3636 211.596 99.2715L214.489 86.9423C214.517 86.828 214.582 86.7261 214.674 86.6527C214.766 86.5793 214.881 86.5387 214.999 86.5374H225.187C225.263 86.5365 225.338 86.5524 225.407 86.5839C225.475 86.6155 225.536 86.6618 225.585 86.7196C225.635 86.7755 225.672 86.8417 225.693 86.9135C225.714 86.9852 225.719 87.0608 225.707 87.1346L223.904 99.474C223.895 99.5459 223.871 99.615 223.832 99.6764C223.092 100.722 222.109 101.574 220.967 102.163C219.825 102.751 218.557 103.058 217.271 103.057ZM212.635 99.3525C213.049 100.205 213.711 100.915 214.536 101.39C215.361 101.865 216.31 102.082 217.261 102.015C218.35 102.011 219.423 101.756 220.395 101.269C221.368 100.783 222.213 100.078 222.864 99.2108L224.556 87.5901H215.386L212.635 99.3525Z" fill="#22242B"/>
<path d="M224.169 92.3477C223.171 93.5061 221.943 94.447 220.562 95.1112C218.331 96.255 215.06 97.5304 212.686 97.1357L214.082 91.9226C215.875 92.1361 217.688 92.1361 219.482 91.9226C221.132 91.8553 222.763 91.5448 224.321 91.0014C224.596 90.9407 224.576 91.8517 224.169 92.3477Z" fill="#22242B"/>
<path d="M213.603 97.7227C213.262 97.7227 212.921 97.6957 212.584 97.6417C212.514 97.6312 212.446 97.606 212.387 97.5676C212.327 97.5291 212.276 97.4785 212.238 97.419C212.198 97.3603 212.172 97.2934 212.161 97.2234C212.151 97.1533 212.156 97.0818 212.177 97.0141L213.572 91.801C213.604 91.682 213.678 91.5789 213.782 91.5116C213.886 91.4442 214.011 91.4175 214.133 91.4366C215.885 91.653 217.658 91.653 219.41 91.4366C221.015 91.3749 222.601 91.0781 224.118 90.5559C224.242 90.5055 224.38 90.4981 224.509 90.5348C224.639 90.5715 224.752 90.6502 224.831 90.7584C224.959 91.0667 225.001 91.4041 224.951 91.7342C224.9 92.0642 224.76 92.3743 224.545 92.631C223.508 93.8488 222.223 94.8354 220.776 95.5261C219.125 96.4067 216.14 97.7227 213.603 97.7227ZM213.328 96.7104C215.783 96.8015 218.993 95.3439 220.327 94.6859C221.65 94.0656 222.824 93.1718 223.771 92.0642C223.834 91.9694 223.885 91.8674 223.924 91.7605C222.488 92.1813 221.007 92.4327 219.512 92.5096C217.819 92.6948 216.111 92.6948 214.418 92.5096L213.328 96.7104Z" fill="#22242B"/>
<path d="M228.58 118.221H228.417C228.351 118.2 228.29 118.167 228.237 118.122C228.184 118.078 228.141 118.023 228.11 117.962C228.078 117.901 228.06 117.834 228.055 117.765C228.05 117.697 228.059 117.628 228.081 117.563L232.156 104.849C232.178 104.782 232.212 104.721 232.257 104.668C232.303 104.614 232.358 104.57 232.421 104.538C232.483 104.507 232.551 104.487 232.621 104.481C232.691 104.476 232.762 104.483 232.829 104.505C232.896 104.526 232.958 104.56 233.011 104.605C233.065 104.65 233.109 104.705 233.141 104.768C233.173 104.83 233.193 104.897 233.199 104.967C233.205 105.036 233.197 105.106 233.175 105.173L229.1 117.887C229.061 117.99 228.989 118.079 228.895 118.139C228.802 118.199 228.691 118.228 228.58 118.221Z" fill="#22242B"/>
<path d="M199.91 118.17C199.771 118.162 199.641 118.101 199.547 117.998C199.454 117.896 199.405 117.762 199.41 117.624L200.185 104.9C200.222 104.791 200.295 104.697 200.391 104.634C200.487 104.57 200.602 104.539 200.717 104.546C200.833 104.553 200.943 104.597 201.031 104.672C201.119 104.747 201.179 104.848 201.204 104.96L200.429 117.684C200.421 117.816 200.363 117.94 200.267 118.03C200.17 118.12 200.042 118.17 199.91 118.17Z" fill="#22242B"/>
<path d="M214.194 84.2193C214.408 81.3243 211.046 80.6056 210.577 84.0169C210.365 85.0942 210.475 86.2096 210.893 87.2257C210.978 87.4268 211.105 87.6078 211.266 87.7567C211.426 87.9057 211.617 88.0192 211.824 88.09C212.032 88.1607 212.253 88.187 212.471 88.1671C212.69 88.1473 212.902 88.0817 213.094 87.9748" fill="#FAFAFA"/>
<path d="M212.34 88.7036C212.15 88.7073 211.96 88.6799 211.779 88.6226C211.486 88.5326 211.214 88.3825 210.983 88.182C210.751 87.9815 210.564 87.7351 210.434 87.4585C209.964 86.3501 209.829 85.1293 210.047 83.946C210.333 81.9215 211.565 81.1218 212.666 81.2332C213.34 81.37 213.932 81.7659 214.314 82.3347C214.696 82.9035 214.836 83.599 214.703 84.2699C214.664 84.3785 214.59 84.4711 214.492 84.5336C214.394 84.5961 214.279 84.625 214.163 84.6158C214.047 84.6066 213.938 84.5598 213.851 84.4827C213.765 84.4056 213.706 84.3023 213.685 84.1889C213.766 83.0248 213.185 82.3466 212.564 82.2859C211.942 82.2252 211.3 82.6604 211.107 84.0978C210.908 85.0678 211 86.0744 211.372 86.9929C211.442 87.1408 211.541 87.2734 211.664 87.3829C211.786 87.4923 211.929 87.5765 212.085 87.6306C212.212 87.6685 212.346 87.6791 212.478 87.6616C212.61 87.6442 212.736 87.5991 212.849 87.5294C212.973 87.4632 213.117 87.4473 213.252 87.485C213.387 87.5228 213.502 87.6113 213.572 87.7318C213.638 87.8541 213.652 87.9971 213.612 88.1297C213.572 88.2624 213.481 88.374 213.359 88.4404C213.048 88.6153 212.697 88.706 212.34 88.7036Z" fill="#22242B"/>
<path d="M227.378 84.2395C228.264 81.3445 231.902 80.6359 231.076 84.0472C230.829 85.2206 230.302 86.3177 229.538 87.2459C228.774 88.0759 227.734 88.4707 227.042 87.995" fill="#FAFAFA"/>
<path d="M227.775 88.7238C227.412 88.7341 227.054 88.6276 226.756 88.4201C226.643 88.3409 226.566 88.2202 226.542 88.0844C226.518 87.9487 226.549 87.8091 226.629 87.6964C226.709 87.5836 226.83 87.5069 226.967 87.4832C227.104 87.4595 227.244 87.4906 227.358 87.5698C227.775 87.8533 228.55 87.5698 229.161 86.8916C229.865 86.0299 230.351 85.0127 230.577 83.9257C230.659 83.5816 230.873 82.4782 230.261 82.3061C229.65 82.134 228.356 82.873 227.887 84.3914C227.867 84.4578 227.833 84.5196 227.788 84.5731C227.743 84.6266 227.688 84.6709 227.626 84.7033C227.501 84.7688 227.355 84.7822 227.22 84.7406C227.085 84.699 226.972 84.6057 226.906 84.4814C226.84 84.3571 226.827 84.2118 226.868 84.0776C227.5 82.0531 229.293 80.97 230.516 81.304C230.903 81.4052 232.126 81.9215 231.535 84.1687C231.272 85.4272 230.702 86.6022 229.874 87.5901C229.619 87.9094 229.301 88.1743 228.941 88.3691C228.58 88.5639 228.184 88.6845 227.775 88.7238Z" fill="#22242B"/>
<path d="M214.296 77.8624L212.696 86.2539C211.932 90.3029 214.5 93.5421 218.432 93.5523H219.258C221.289 93.4493 223.228 92.6785 224.77 91.3609C226.312 90.0434 227.369 88.254 227.775 86.2742C228.162 84.2497 229.568 81.0914 228.081 79.5731C225.707 77.1437 223.404 75.5241 222.09 72.2343C219.074 72.8618 214.296 73.6919 214.296 77.8624Z" fill="#FAFAFA"/>
<path d="M219.268 94.0685H218.432C217.497 94.0893 216.569 93.9009 215.718 93.5172C214.866 93.1334 214.112 92.5642 213.511 91.8517C212.876 91.0584 212.428 90.1337 212.201 89.1456C211.973 88.1575 211.972 87.1312 212.197 86.1426L213.786 77.8117C213.786 73.3983 218.534 72.4266 221.662 71.7888L221.998 71.718C222.118 71.6926 222.243 71.7102 222.352 71.7676C222.46 71.825 222.544 71.9186 222.589 72.0318C223.553 74.2145 225.023 76.1396 226.879 77.6498C227.398 78.1458 227.897 78.662 228.468 79.1985C229.833 80.5853 229.181 82.9641 228.662 84.8772C228.519 85.4036 228.387 85.8895 228.305 86.3551C227.875 88.4556 226.754 90.3541 225.117 91.7508C223.481 93.1475 221.423 93.963 219.268 94.0685ZM221.774 72.8112C218.809 73.4287 214.826 74.2891 214.826 77.8725C214.831 77.906 214.831 77.9402 214.826 77.9737L213.226 86.3551C213.031 87.1929 213.028 88.0634 213.217 88.9025C213.405 89.7416 213.781 90.528 214.316 91.2038C214.821 91.7977 215.454 92.2708 216.169 92.588C216.883 92.9052 217.66 93.0583 218.443 93.036H219.278C221.186 92.9363 223.007 92.2088 224.453 90.9681C225.899 89.7274 226.889 88.044 227.266 86.183C227.358 85.7174 227.5 85.1708 227.653 84.6242C228.122 82.8831 228.672 80.9092 227.714 79.9476C227.184 79.401 226.695 78.9353 226.155 78.4292C224.309 76.8961 222.815 74.9872 221.774 72.8315V72.8112Z" fill="#22242B"/>
<path d="M220.001 87.4687C219.623 87.4673 219.246 87.4437 218.87 87.3978C218.796 87.3994 218.721 87.385 218.653 87.3554C218.584 87.3258 218.523 87.2819 218.473 87.2266C218.423 87.1712 218.385 87.1058 218.363 87.0348C218.341 86.9638 218.334 86.8889 218.344 86.8151C218.354 86.7414 218.379 86.6706 218.419 86.6076C218.459 86.5446 218.512 86.4908 218.574 86.4501C218.637 86.4093 218.707 86.3824 218.781 86.3713C218.855 86.3601 218.931 86.365 219.003 86.3856C219.616 86.4478 220.234 86.4478 220.847 86.3856C221.038 84.7652 220.941 83.1241 220.562 81.5369C220.538 81.4 220.57 81.2594 220.65 81.1456C220.73 81.0319 220.852 80.9542 220.99 80.9295C221.127 80.9086 221.267 80.9411 221.381 81.0203C221.495 81.0995 221.574 81.2193 221.601 81.3547C221.795 82.4378 222.396 86.0616 221.662 87.0536C221.595 87.1511 221.507 87.2332 221.405 87.2943C221.303 87.3554 221.189 87.3941 221.071 87.4079C220.716 87.4517 220.359 87.472 220.001 87.4687Z" fill="#22242B"/>
<path d="M191.922 76.1415H148.397C148.316 76.1523 148.234 76.1458 148.156 76.1225C148.078 76.0992 148.006 76.0596 147.945 76.0064C147.884 75.9532 147.835 75.8876 147.801 75.814C147.767 75.7404 147.75 75.6605 147.75 75.5797C147.75 75.4989 147.767 75.419 147.801 75.3454C147.835 75.2718 147.884 75.2062 147.945 75.153C148.006 75.0998 148.078 75.0602 148.156 75.0369C148.234 75.0136 148.316 75.0071 148.397 75.0179L191.922 75.0685C192.059 75.0868 192.184 75.1538 192.275 75.2571C192.366 75.3605 192.416 75.493 192.416 75.6303C192.416 75.7675 192.366 75.9001 192.275 76.0034C192.184 76.1068 192.059 76.1738 191.922 76.1921V76.1415Z" fill="#B8B7BE"/>
<path d="M190.444 83.8549H146.929C146.849 83.8656 146.767 83.8592 146.689 83.8359C146.611 83.8126 146.539 83.773 146.478 83.7198C146.416 83.6666 146.367 83.601 146.334 83.5274C146.3 83.4538 146.283 83.3739 146.283 83.293C146.283 83.2122 146.3 83.1323 146.334 83.0587C146.367 82.9851 146.416 82.9195 146.478 82.8663C146.539 82.8131 146.611 82.7736 146.689 82.7503C146.767 82.727 146.849 82.7205 146.929 82.7313L190.455 82.7819C190.592 82.8002 190.717 82.8672 190.808 82.9705C190.899 83.0738 190.949 83.2064 190.949 83.3437C190.949 83.4809 190.899 83.6135 190.808 83.7168C190.717 83.8201 190.592 83.8872 190.455 83.9055L190.444 83.8549Z" fill="#B8B7BE"/>
<path d="M188.977 91.5683L145.452 91.5176C145.302 91.515 145.16 91.4541 145.055 91.3481C144.95 91.2421 144.892 91.0994 144.892 90.9508C144.892 90.8031 144.951 90.6615 145.056 90.5571C145.161 90.4527 145.303 90.394 145.452 90.394L188.977 90.4447C189.058 90.4339 189.14 90.4404 189.218 90.4637C189.296 90.487 189.368 90.5265 189.429 90.5797C189.49 90.633 189.539 90.6985 189.573 90.7721C189.607 90.8457 189.624 90.9256 189.624 91.0064C189.624 91.0873 189.607 91.1672 189.573 91.2408C189.539 91.3144 189.49 91.38 189.429 91.4332C189.368 91.4864 189.296 91.526 189.218 91.5493C189.14 91.5726 189.058 91.579 188.977 91.5683Z" fill="#B8B7BE"/>
<path d="M187.51 99.2816L143.985 99.2209C143.911 99.2223 143.837 99.2088 143.769 99.1813C143.7 99.1538 143.638 99.1129 143.586 99.0609C143.533 99.0089 143.492 98.947 143.464 98.8788C143.437 98.8107 143.423 98.7376 143.425 98.6641C143.423 98.5902 143.437 98.5167 143.464 98.448C143.492 98.3793 143.533 98.3167 143.585 98.2639C143.637 98.2111 143.699 98.1692 143.768 98.1406C143.837 98.112 143.91 98.0973 143.985 98.0973L187.51 98.1479C187.662 98.1479 187.807 98.2076 187.914 98.3139C188.021 98.4202 188.081 98.5644 188.081 98.7148C188.078 98.8643 188.017 99.007 187.911 99.1127C187.804 99.2185 187.661 99.279 187.51 99.2816Z" fill="#B8B7BE"/>
<path d="M186.002 107.035H155.315C155.178 107.017 155.052 106.95 154.961 106.847C154.87 106.744 154.82 106.611 154.82 106.474C154.82 106.336 154.87 106.204 154.961 106.101C155.052 105.997 155.178 105.93 155.315 105.912H186.002C186.139 105.93 186.265 105.997 186.356 106.101C186.447 106.204 186.497 106.336 186.497 106.474C186.497 106.611 186.447 106.744 186.356 106.847C186.265 106.95 186.139 107.017 186.002 107.035Z" fill="#B8B7BE"/>
<path d="M230.047 148.457L134.988 148.345C134.905 148.347 134.822 148.33 134.746 148.295C134.67 148.259 134.603 148.208 134.55 148.143C134.496 148.079 134.457 148.005 134.436 147.924C134.415 147.843 134.412 147.759 134.428 147.677L138.748 125.033C138.774 124.906 138.842 124.792 138.942 124.709C139.042 124.626 139.168 124.58 139.298 124.578L234.357 124.689C234.441 124.688 234.523 124.706 234.599 124.741C234.675 124.776 234.742 124.827 234.795 124.892C234.847 124.956 234.885 125.031 234.906 125.111C234.928 125.192 234.931 125.275 234.917 125.357L230.597 148.001C230.572 148.128 230.503 148.243 230.403 148.325C230.303 148.408 230.178 148.455 230.047 148.457ZM135.671 147.222L229.579 147.333L233.654 125.813L139.736 125.701L135.671 147.222Z" fill="#B8B7BE"/>
<path d="M232.656 132.898L137.902 132.787C137.822 132.798 137.74 132.791 137.662 132.768C137.584 132.745 137.512 132.705 137.451 132.652C137.389 132.599 137.34 132.533 137.307 132.46C137.273 132.386 137.256 132.306 137.256 132.225C137.256 132.144 137.273 132.065 137.307 131.991C137.34 131.917 137.389 131.852 137.451 131.799C137.512 131.745 137.584 131.706 137.662 131.683C137.74 131.659 137.822 131.653 137.902 131.664L232.656 131.775C232.792 131.793 232.918 131.86 233.009 131.963C233.1 132.067 233.15 132.199 233.15 132.337C233.15 132.474 233.1 132.606 233.009 132.71C232.918 132.813 232.792 132.88 232.656 132.898Z" fill="#B8B7BE"/>
<path d="M204.342 148.426H204.24C204.093 148.397 203.964 148.312 203.88 148.189C203.796 148.065 203.764 147.915 203.791 147.768L208.101 125.124C208.131 124.979 208.217 124.85 208.341 124.767C208.465 124.684 208.616 124.652 208.763 124.679C208.911 124.708 209.041 124.793 209.126 124.916C209.212 125.039 209.246 125.19 209.222 125.337L204.902 147.981C204.874 148.108 204.803 148.221 204.701 148.302C204.599 148.383 204.472 148.427 204.342 148.426Z" fill="#B8B7BE"/>
<path d="M156.384 148.366H156.282C156.134 148.338 156.002 148.254 155.916 148.131C155.83 148.007 155.797 147.855 155.824 147.708L160.144 125.053C160.148 124.973 160.17 124.894 160.208 124.822C160.246 124.751 160.299 124.688 160.363 124.638C160.427 124.589 160.501 124.553 160.58 124.534C160.659 124.516 160.742 124.514 160.821 124.529C160.901 124.544 160.977 124.576 161.043 124.623C161.11 124.67 161.165 124.73 161.206 124.8C161.247 124.87 161.273 124.947 161.281 125.028C161.289 125.108 161.28 125.189 161.254 125.266L156.945 147.91C156.919 148.039 156.849 148.154 156.747 148.237C156.644 148.32 156.516 148.366 156.384 148.366Z" fill="#B8B7BE"/>
<path d="M152.615 107.329H152.513C152.366 107.3 152.237 107.214 152.153 107.091C152.069 106.968 152.037 106.817 152.064 106.671L156.384 84.027C156.397 83.9543 156.423 83.8848 156.463 83.8225C156.502 83.7602 156.554 83.7063 156.615 83.6639C156.675 83.6216 156.744 83.5916 156.816 83.5757C156.889 83.5598 156.963 83.5584 157.036 83.5715C157.185 83.5986 157.317 83.683 157.402 83.8063C157.488 83.9297 157.522 84.0818 157.495 84.2294L153.175 106.873C153.149 107.002 153.079 107.118 152.977 107.201C152.875 107.284 152.747 107.329 152.615 107.329Z" fill="#B8B7BE"/>
<path d="M5.43123 213.494L3.69919 181.942L82.273 167.649C82.3647 168.489 85.7473 194.605 88.1926 213.474L5.43123 213.494Z" fill="#22242B"/>
<path d="M88.1926 214H5.43124C5.30126 214 5.17611 213.951 5.08141 213.863C4.98671 213.774 4.92961 213.653 4.92181 213.524L3.18977 181.993C3.18496 181.87 3.22439 181.749 3.30096 181.653C3.37752 181.556 3.48622 181.49 3.6075 181.466L82.1813 167.173C82.251 167.162 82.3223 167.165 82.3907 167.182C82.4591 167.2 82.5231 167.231 82.5787 167.274C82.6344 167.315 82.6811 167.367 82.7162 167.426C82.7512 167.485 82.7738 167.551 82.7825 167.619C82.8742 168.52 86.9496 200.011 88.702 213.433C88.7137 213.575 88.6699 213.717 88.5797 213.828C88.5306 213.882 88.4708 213.924 88.4042 213.954C88.3376 213.984 88.2655 213.999 88.1926 214ZM5.9101 212.988H87.622C85.5843 197.338 82.3443 172.305 81.8349 168.266L4.22899 182.377L5.9101 212.988Z" fill="#22242B"/>
<path d="M130.139 118.322L144.015 106.296C144.015 106.296 149.11 93.704 151.147 91.305C153.185 88.906 168.468 81.4862 168.641 83.1462C168.814 84.8063 165.167 87.0535 164.148 87.8836C162.609 89.1287 161.01 90.2826 159.431 91.4669C162.63 92.7829 165.829 96.4169 167.245 99.565C167.903 100.927 168.19 102.436 168.078 103.942C167.965 105.448 167.457 106.899 166.603 108.149C166.129 108.849 165.428 109.366 164.617 109.617C164.209 109.726 163.777 109.706 163.381 109.561C162.985 109.416 162.644 109.153 162.406 108.807L162.202 109.06C160.572 111.243 158.625 113.174 156.425 114.789C154.632 115.984 152.401 116.115 150.933 117.593C148.794 119.729 147.103 122.654 145.269 125.023L135.06 138.415L130.139 118.322Z" fill="#FAFAFA"/>
<path d="M135.06 138.901H134.958C134.862 138.88 134.775 138.832 134.704 138.765C134.634 138.697 134.584 138.611 134.561 138.516L129.69 118.454C129.666 118.363 129.668 118.269 129.695 118.179C129.722 118.09 129.773 118.01 129.843 117.948L143.588 106.023C144.138 104.677 148.682 93.3498 150.719 91.0115C152.757 88.6732 166.43 81.8203 168.57 82.4884C168.713 82.5296 168.841 82.6122 168.937 82.7257C169.033 82.8393 169.093 82.9786 169.11 83.1261C169.252 84.604 167.225 86.2337 165.136 87.7723L164.423 88.2987C163.343 89.1794 162.222 90.0195 161.132 90.8293L160.378 91.3962C163.56 93.2509 166.101 96.0219 167.663 99.3423C168.365 100.787 168.671 102.39 168.549 103.99C168.427 105.59 167.883 107.129 166.97 108.453C166.428 109.25 165.626 109.836 164.698 110.113C164.298 110.217 163.879 110.226 163.475 110.138C163.071 110.05 162.694 109.868 162.375 109.607C160.757 111.741 158.835 113.63 156.67 115.214C155.862 115.708 155.001 116.109 154.102 116.409C153.053 116.711 152.084 117.236 151.259 117.948C149.847 119.458 148.569 121.087 147.439 122.816C146.838 123.677 146.237 124.527 145.635 125.327L135.447 138.739C135.397 138.791 135.337 138.833 135.271 138.861C135.204 138.889 135.132 138.902 135.06 138.901ZM130.75 118.504L135.304 137.231L144.881 124.669C145.483 123.889 146.063 123.049 146.654 122.199C147.821 120.422 149.14 118.749 150.597 117.198C151.521 116.375 152.617 115.767 153.807 115.417C154.631 115.148 155.42 114.784 156.16 114.334C158.316 112.74 160.225 110.84 161.825 108.696L162.029 108.442C162.086 108.382 162.155 108.334 162.233 108.303C162.31 108.271 162.394 108.257 162.477 108.26C162.56 108.269 162.639 108.298 162.708 108.344C162.777 108.39 162.834 108.451 162.874 108.523C163.056 108.774 163.311 108.964 163.604 109.065C163.898 109.167 164.216 109.175 164.515 109.09C165.212 108.866 165.812 108.413 166.216 107.805C167.022 106.625 167.5 105.255 167.602 103.833C167.704 102.411 167.426 100.988 166.797 99.7068C165.523 96.9129 162.457 93.2284 159.257 91.9124C159.176 91.8792 159.105 91.8252 159.051 91.7559C158.997 91.6866 158.963 91.6044 158.952 91.5176C158.938 91.4299 158.949 91.3401 158.983 91.258C159.017 91.1759 159.073 91.1046 159.145 91.052L160.582 89.9689C161.662 89.1591 162.773 88.3291 163.842 87.4686C164.026 87.3168 164.28 87.1346 164.586 86.9018C165.605 86.1527 167.928 84.442 168.142 83.3792C166.104 83.3792 153.613 89.23 151.555 91.6189C149.497 94.0078 144.586 106.337 144.535 106.458C144.503 106.536 144.454 106.605 144.392 106.661L130.75 118.504Z" fill="#22242B"/>
<path d="M0.5 201.792C0.5 201.792 1.51885 117.209 11.6564 100.284C21.794 83.3589 49.6596 78.5305 63.4956 87.8229C77.3316 97.1154 88.1926 194.656 88.1926 194.656C88.1926 194.656 44.6367 203.635 0.5 201.792Z" fill="#FE6A32"/>
<path d="M63.4956 87.8026C63.4956 87.8026 76.4961 89.7765 83.6587 100.729C90.8212 111.682 98.7581 126.784 98.7581 126.784L136.13 107.4L153.623 123.93C153.623 123.93 122.243 157.678 107.072 166.819C92.757 175.443 81.4885 163.529 73.6739 155.856C70.3627 152.607 65.2378 144.62 65.2378 144.62L63.4956 87.8026Z" fill="#FE6A32"/>
<path d="M65.5842 54.0036C64.2797 54.0059 63.0178 53.5425 62.0285 52.6978C61.0616 51.8792 60.4103 50.7529 60.1854 49.5108C59.9606 48.2687 60.1761 46.9875 60.7953 45.8855C61.4144 44.7836 62.399 43.9289 63.5812 43.4672C64.7634 43.0055 66.0702 42.9653 67.279 43.3533C68.4877 43.7414 69.5236 44.5338 70.2103 45.5956C70.897 46.6573 71.192 47.9228 71.045 49.1764C70.898 50.4299 70.3182 51.5941 69.4042 52.4706C68.4902 53.3471 67.2987 53.8817 66.0325 53.9833L65.5842 54.0036ZM65.5842 44.0734H65.2175C64.031 44.1702 62.9317 44.7309 62.1609 45.6323C61.7829 46.0778 61.4981 46.5937 61.3231 47.1499C61.1482 47.7061 61.0866 48.2914 61.142 48.8715C61.2009 49.6015 61.44 50.3059 61.8383 50.9222C62.2365 51.5385 62.7816 52.0477 63.4253 52.4048C64.0689 52.7618 64.7912 52.9557 65.5283 52.9691C66.2653 52.9826 66.9943 52.8153 67.6507 52.482C68.3071 52.1487 68.8707 51.6597 69.2915 51.0584C69.7123 50.457 69.9773 49.7619 70.0632 49.0345C70.149 48.307 70.0529 47.5698 69.7835 46.8881C69.5141 46.2064 69.0796 45.6012 68.5185 45.1261C67.7079 44.4357 66.6723 44.0615 65.6046 44.0734H65.5842Z" fill="#22242B"/>
<path d="M63.5262 52.5662C63.5262 52.5662 70.0876 61.5853 68.8853 63.5592C67.6831 65.5331 63.3937 64.4399 63.3937 64.4399" fill="#FAFAFA"/>
<path d="M65.8593 65.2497C64.9877 65.2408 64.1197 65.1356 63.2714 64.9359C63.2065 64.9194 63.1455 64.8903 63.0919 64.8503C63.0382 64.8103 62.9931 64.7602 62.959 64.7028C62.925 64.6455 62.9026 64.582 62.8933 64.516C62.8839 64.45 62.8878 64.3829 62.9047 64.3184C62.92 64.2532 62.9485 64.1917 62.9885 64.1377C63.0284 64.0837 63.0789 64.0383 63.137 64.0043C63.1951 63.9702 63.2595 63.9482 63.3264 63.9396C63.3933 63.9309 63.4612 63.9358 63.5262 63.954C64.6163 64.2273 67.6016 64.6525 68.4472 63.3062C69.0891 62.2939 66.1752 57.0707 63.1084 52.8598C63.0316 52.7518 63.0004 52.6184 63.0213 52.4878C63.0422 52.3573 63.1137 52.2401 63.2205 52.1613C63.2741 52.1206 63.3355 52.0911 63.4009 52.0747C63.4663 52.0582 63.5344 52.0551 63.6011 52.0655C63.6677 52.0759 63.7316 52.0996 63.7888 52.1352C63.8459 52.1708 63.8952 52.2176 63.9337 52.2726C65.0646 53.8214 70.6276 61.6663 69.3234 63.8224C68.6408 64.9561 67.1737 65.2497 65.8593 65.2497Z" fill="#22242B"/>
<path d="M61.7024 40.3585C65.7778 43.3952 64.9016 50.1672 65.0544 54.53C65.2718 60.6912 65.3397 66.8592 65.2582 73.0339C65.2582 76.9412 55.0697 77.4474 53.195 76.3541L56.1293 85.9098L33.7146 84.4521L34.0508 71.6674C34.0508 71.6674 31.2082 54.115 34.8455 45.9866C35.9066 43.6488 37.604 41.6519 39.7462 40.2211C41.8884 38.7903 44.3903 37.9824 46.9698 37.8886C46.9698 37.8886 57.7187 37.4128 61.7024 40.3585Z" fill="#FAFAFA"/>
<path d="M56.1191 86.4361L33.7044 84.9785C33.5729 84.9706 33.4495 84.9125 33.3602 84.8162C33.2709 84.72 33.2227 84.5931 33.2255 84.4622L33.5617 71.6674C33.4497 71.0398 30.7395 53.9732 34.3972 45.8044C38.0549 37.6355 46.8476 37.4229 47.0004 37.4229C47.4181 37.4229 57.9632 36.9269 62.0386 39.9536C65.6148 42.6158 65.5944 47.9098 65.5741 52.1006C65.5741 52.9407 65.5741 53.7505 65.5741 54.4793C65.788 60.6237 65.8593 66.8592 65.7778 73.0035C65.7362 73.616 65.5234 74.2048 65.1634 74.7037C64.8035 75.2026 64.3106 75.5919 63.7401 75.8277C61.1217 77.2854 56.3229 77.5992 53.9591 77.1133L56.6082 85.7781C56.6315 85.8574 56.6353 85.941 56.6193 86.022C56.6034 86.1031 56.5681 86.1791 56.5165 86.2438C56.4695 86.304 56.4093 86.3527 56.3404 86.386C56.2715 86.4194 56.1958 86.4365 56.1191 86.4361ZM34.2138 84.0067L55.4161 85.3733L52.6958 76.5262C52.6671 76.4283 52.6682 76.3241 52.699 76.2268C52.7299 76.1295 52.789 76.0435 52.869 75.9796C52.9532 75.923 53.0526 75.8928 53.1543 75.8928C53.2559 75.8928 53.3553 75.923 53.4395 75.9796C54.652 76.6983 60.3779 76.6375 63.2409 75.0382C64.2597 74.4915 64.7386 73.8336 64.7386 73.0845C64.8201 66.9503 64.7386 60.7351 64.5348 54.6109C64.5348 53.8619 64.5348 53.042 64.5348 52.1917C64.5348 48.1427 64.5348 43.1624 61.407 40.8038C57.627 37.9999 47.143 38.4655 47.0004 38.4757C44.5132 38.5515 42.0978 39.3219 40.0309 40.6987C37.9641 42.0754 36.3294 44.0027 35.3142 46.2599C31.7686 54.1453 34.5296 71.475 34.5602 71.6471L34.2138 84.0067Z" fill="#22242B"/>
<path d="M29.5882 87.8026L31.1267 80.9193L58.544 81.3546L60.5817 87.4281C60.5817 87.4281 46.9393 95.2629 29.5882 87.8026Z" fill="#FAFAFA"/>
<path d="M44.7997 91.5075C39.4925 91.4953 34.2448 90.3961 29.3844 88.2784C29.2763 88.2301 29.1881 88.1466 29.1344 88.0416C29.0806 87.9367 29.0646 87.8166 29.089 87.7014L30.6274 80.8181C30.6512 80.7048 30.7141 80.6032 30.8053 80.5311C30.8965 80.459 31.0102 80.4209 31.1267 80.4233L58.544 80.8687C58.6476 80.8678 58.7489 80.8997 58.8332 80.9598C58.9174 81.0198 58.9803 81.1049 59.0127 81.2027L61.0504 87.2762C61.0917 87.3859 61.0918 87.5067 61.0506 87.6165C61.0094 87.7262 60.9297 87.8175 60.8262 87.8735C55.8513 90.3348 50.3568 91.5806 44.7997 91.5075ZM30.1791 87.5091C34.889 89.547 39.9802 90.57 45.117 90.5107C50.2538 90.4514 55.3196 89.3111 59.9806 87.1649L58.1772 81.8708L31.5342 81.4457L30.1791 87.5091Z" fill="#22242B"/>
<path d="M43.6382 71.7989C42.3137 79.8159 43.7299 86.5677 35.7013 91.9528C30.2097 95.6475 23.0981 96.427 16.5979 95.1414C12.5225 94.3316 8.29421 92.5399 6.0935 89.0072C3.4241 84.7254 4.44295 79.077 6.63349 74.532C8.82402 69.987 12.064 65.9683 13.9183 61.2715C18.4522 49.8128 14.713 36.8155 25.8694 28.7074C30.2437 25.5636 35.3463 23.5685 40.7039 22.9072C42.2424 22.7148 55.6403 24.4357 55.4467 24.6685C57.9836 21.7633 63.4039 23.5145 65.1258 26.9461C65.8174 28.5031 66.1831 30.1837 66.2006 31.8856C66.2181 33.5874 65.8871 35.2751 65.2277 36.8459C65.0341 37.2407 61.5088 41.6541 61.5903 40.3483C61.3662 43.8304 59.2266 45.6525 56.6285 48.0616C54.0305 50.4708 50.9433 52.3131 48.1109 54.4489C42.5888 58.589 44.494 63.6806 43.9235 69.5719C43.8521 70.3311 43.7604 71.0701 43.6382 71.7989Z" fill="#FAFAFA"/>
<path d="M22.4053 96.2246C20.4243 96.2223 18.4483 96.0257 16.5062 95.6375C12.93 94.9289 8.14138 93.2587 5.66557 89.2806C2.25242 83.8043 4.88106 76.9918 6.175 74.3094C7.13272 72.2849 8.3044 70.4021 9.43532 68.5497C10.9866 66.1838 12.3265 63.6875 13.4394 61.0894C14.8379 57.1102 15.7445 52.9769 16.1394 48.7804C17.1582 41.0063 18.1771 33.6675 25.5739 28.3025C30.0147 25.1027 35.1988 23.0725 40.6427 22.4011C40.7446 22.4011 52.3595 23.3121 55.2531 24.1219C55.8388 23.5585 56.55 23.1403 57.3289 22.9011C58.1078 22.6619 58.9325 22.6085 59.736 22.7453C60.956 22.904 62.1211 23.346 63.1371 24.0354C64.1531 24.7247 64.9915 25.6422 65.5842 26.7133C66.3053 28.3428 66.686 30.1007 66.7036 31.8806C66.7211 33.6605 66.3749 35.4255 65.6861 37.0686C65.6861 37.0686 63.3631 40.3989 62.0386 40.9962C61.6209 44.1443 59.6138 45.9967 57.3213 48.0819L56.9749 48.4059C55.1971 49.9786 53.3111 51.4263 51.3305 52.7383C50.3117 53.4266 49.3641 54.1048 48.4166 54.8235C44.4838 57.7692 44.5144 61.2412 44.5551 65.2598C44.5891 66.7051 44.5483 68.1512 44.4329 69.5923C44.3616 70.3717 44.2597 71.1309 44.1374 71.8496C43.8521 73.5603 43.6993 75.2204 43.5465 76.8197C42.9759 82.8123 42.5276 87.9545 35.9866 92.3477C31.9468 94.9498 27.2192 96.2993 22.4053 96.2246ZM41.0707 23.3931H40.765C35.4934 24.0428 30.4718 26.0029 26.1649 29.0921C19.1246 34.1534 18.1669 41.3302 17.148 48.8816C16.7519 53.1791 15.8246 57.4118 14.3869 61.4841C13.253 64.1373 11.8895 66.6876 10.3115 69.1064C9.14327 70.9445 8.06873 72.8398 7.09197 74.7851C5.87954 77.3056 3.38335 83.7334 6.5316 88.7744C8.81382 92.4489 13.3273 94.0078 16.7201 94.6758C23.6381 96.0424 30.4644 94.9087 35.4364 91.5682C41.5495 87.4686 42.008 82.5187 42.5684 76.7792C42.7212 75.1596 42.8842 73.4894 43.1695 71.718C43.2918 71.0195 43.3835 70.2806 43.4548 69.5214C43.5707 68.1175 43.6115 66.7085 43.577 65.3003C43.577 61.1805 43.5057 57.3035 47.8358 54.0441C48.8547 53.3254 49.792 52.6371 50.7803 51.9386C52.7251 50.6549 54.5771 49.2377 56.3229 47.6973L56.6693 47.3734C59.0432 45.1768 60.9179 43.4458 61.1217 40.2876C61.1345 40.1552 61.1973 40.0325 61.2975 39.9442C61.3977 39.856 61.5278 39.8087 61.6617 39.8118C61.7584 39.8176 61.8509 39.8529 61.9266 39.9131C62.9704 38.9052 63.9186 37.804 64.759 36.6233C65.3806 35.1213 65.6927 33.5107 65.677 31.8868C65.6612 30.2629 65.3179 28.6586 64.6673 27.1688C64.148 26.2413 63.4162 25.4483 62.5312 24.854C61.6462 24.2596 60.6328 23.8805 59.573 23.7474C58.89 23.624 58.1866 23.6733 57.5278 23.8909C56.869 24.1085 56.276 24.4873 55.8033 24.9925C55.722 25.0871 55.6086 25.1487 55.4845 25.1655C55.3605 25.1823 55.2346 25.1531 55.1308 25.0836C50.4763 24.2817 45.7834 23.7174 41.0707 23.3931Z" fill="#22242B"/>
<path d="M64.9118 68.4585C64.9118 68.4585 60.2251 71.5965 57.4538 66.7681L64.9118 68.4585Z" fill="#FAFAFA"/>
<path d="M61.6209 69.9668C61.2404 69.9709 60.8608 69.9302 60.49 69.8454C59.7433 69.6443 59.0479 69.2888 58.4491 68.8021C57.8504 68.3154 57.3619 67.7085 57.0157 67.0212C56.9822 66.9634 56.9606 66.8996 56.952 66.8334C56.9433 66.7673 56.9479 66.7001 56.9654 66.6357C56.9829 66.5713 57.013 66.511 57.054 66.4581C57.0949 66.4053 57.146 66.361 57.2042 66.3278C57.2624 66.2946 57.3266 66.273 57.3932 66.2645C57.4598 66.2559 57.5274 66.2604 57.5922 66.2778C57.657 66.2952 57.7177 66.3251 57.7709 66.3658C57.8241 66.4065 57.8687 66.4572 57.9021 66.5151C58.1779 67.0801 58.5711 67.5806 59.0558 67.9837C59.5405 68.3867 60.1057 68.6831 60.7141 68.8534C62.0739 69.0609 63.4633 68.7733 64.6265 68.0436C64.6811 68.0055 64.7428 67.9786 64.8079 67.9646C64.8731 67.9506 64.9404 67.9497 65.006 67.962C65.0715 67.9742 65.1339 67.9994 65.1895 68.036C65.245 68.0726 65.2927 68.1199 65.3295 68.1751C65.3681 68.2302 65.3953 68.2922 65.4096 68.3578C65.4238 68.4233 65.4248 68.491 65.4125 68.557C65.4001 68.6229 65.3747 68.6857 65.3378 68.7418C65.3008 68.7979 65.253 68.8461 65.1971 68.8837C64.1232 69.5543 62.8887 69.9282 61.6209 69.9668Z" fill="#22242B"/>
<path d="M38.2688 57.8602H38.1669C38.1014 57.8469 38.0391 57.821 37.9836 57.7838C37.9282 57.7466 37.8806 57.6989 37.8437 57.6434C37.8068 57.5879 37.7813 57.5258 37.7686 57.4605C37.7559 57.3953 37.7562 57.3281 37.7696 57.263C38.4013 54.1453 39.0024 54.044 39.2673 54.0137C39.7767 53.9226 59.8991 49.8128 70.4747 47.6466C70.6098 47.6198 70.7501 47.6474 70.8648 47.7233C70.9794 47.7992 71.059 47.9173 71.086 48.0515C71.1131 48.1858 71.0853 48.3252 71.0089 48.4391C70.9324 48.553 70.8136 48.632 70.6785 48.6589C69.4559 48.9018 41.5699 54.621 39.5322 55.0057C39.1651 55.794 38.908 56.6283 38.7681 57.4857C38.7371 57.5935 38.6716 57.6884 38.5815 57.756C38.4915 57.8235 38.3817 57.8601 38.2688 57.8602Z" fill="#22242B"/>
<path d="M51.7992 57.01C51.5578 55.4746 50.895 54.0351 49.8837 52.8496C49.2295 51.8384 48.4297 50.9278 47.5098 50.1469C47.0462 49.7617 46.5022 49.4838 45.9172 49.3332C45.3322 49.1827 44.7207 49.1633 44.1272 49.2764C43.6133 49.4297 43.1379 49.6893 42.7322 50.0382C42.3266 50.3872 41.9999 50.8175 41.7737 51.3009C41.3342 52.2529 41.1149 53.2905 41.1318 54.3377C41.1262 56.6597 41.7363 58.9421 42.9006 60.9555C44.065 62.9688 45.7426 64.6419 47.7645 65.8064L47.4385 65.5331" fill="#FAFAFA"/>
<path d="M47.7645 66.353C47.6761 66.3523 47.589 66.3315 47.5098 66.2923C45.4186 65.0774 43.683 63.341 42.475 61.2548C41.2669 59.1686 40.6283 56.8051 40.6224 54.3983C40.5982 53.2593 40.8388 52.1301 41.3254 51.0984C41.579 50.5484 41.9501 50.0598 42.4128 49.6665C42.8755 49.2732 43.4188 48.9846 44.005 48.8208C44.6773 48.6889 45.3712 48.7115 46.0334 48.8869C46.6957 49.0624 47.3087 49.386 47.8257 49.8331C48.7871 50.6407 49.6186 51.5897 50.2913 52.6471C51.3786 53.8962 52.0854 55.427 52.329 57.0606C52.333 57.127 52.3238 57.1936 52.3019 57.2566C52.28 57.3195 52.2459 57.3775 52.2014 57.4273C52.1569 57.4772 52.103 57.5178 52.0427 57.5469C51.9825 57.576 51.917 57.5931 51.8501 57.5971C51.7832 57.601 51.7162 57.5919 51.6528 57.5701C51.5895 57.5484 51.5311 57.5145 51.481 57.4703C51.4308 57.4261 51.3899 57.3725 51.3606 57.3127C51.3313 57.2528 51.3142 57.1878 51.3101 57.1213C51.0618 55.6842 50.4323 54.339 49.4864 53.2241C48.8639 52.2552 48.1019 51.3821 47.2245 50.6328C46.8214 50.2927 46.347 50.0463 45.8358 49.9115C45.3247 49.7766 44.7897 49.7568 44.2699 49.8533C43.8249 49.9824 43.4129 50.2045 43.0614 50.5048C42.7099 50.8051 42.4272 51.1766 42.2322 51.5944C41.8239 52.4975 41.622 53.4793 41.6412 54.4692C41.6449 56.5654 42.166 58.6286 43.159 60.4782C44.152 62.3277 45.5864 63.907 47.3366 65.0776C47.4141 65.0677 47.4928 65.0754 47.5669 65.0999C47.6409 65.1244 47.7085 65.1652 47.7645 65.2193L48.1211 65.5736C48.2094 65.658 48.2633 65.7716 48.2727 65.8929C48.2821 66.0142 48.2463 66.1348 48.1721 66.2315C48.1166 66.2792 48.0516 66.3147 47.9814 66.3356C47.9112 66.3566 47.8373 66.3625 47.7645 66.353Z" fill="#22242B"/>
<path d="M61.7085 50.0537C62.1902 50.0076 62.4854 48.9868 62.3678 47.7737C62.2503 46.5606 61.7645 45.6145 61.2828 45.6606C60.8011 45.7067 60.5059 46.7274 60.6235 47.9406C60.741 49.1537 61.2268 50.0998 61.7085 50.0537Z" fill="#22242B"/>
<path d="M87.1737 166.758C87.1031 166.773 87.0303 166.773 86.9598 166.758C62.7824 155.472 50.709 113.625 50.5867 113.21C50.5521 113.08 50.57 112.941 50.6366 112.824C50.7032 112.707 50.8133 112.62 50.9433 112.582C51.0076 112.564 51.0748 112.559 51.1412 112.567C51.2075 112.575 51.2716 112.596 51.3295 112.629C51.3875 112.662 51.4382 112.706 51.4786 112.759C51.519 112.812 51.5483 112.872 51.5648 112.937C51.6871 113.352 63.6382 154.753 87.3979 165.837C87.5018 165.887 87.5856 165.971 87.6354 166.074C87.6852 166.178 87.6982 166.295 87.6721 166.407C87.646 166.518 87.5825 166.618 87.492 166.689C87.4014 166.761 87.2892 166.799 87.1737 166.799V166.758Z" fill="#22242B"/>
<path d="M205.197 202.136H140.195L152.645 137.555H217.648L205.197 202.136Z" fill="#FAFAFA"/>
<path d="M205.197 202.643H140.154C140.079 202.641 140.004 202.625 139.936 202.593C139.867 202.562 139.806 202.517 139.757 202.46C139.711 202.402 139.678 202.335 139.66 202.264C139.643 202.192 139.641 202.118 139.655 202.045L152.105 137.454C152.127 137.338 152.189 137.234 152.28 137.16C152.372 137.086 152.486 137.047 152.604 137.049H217.607C217.683 137.048 217.758 137.064 217.826 137.095C217.895 137.127 217.956 137.173 218.004 137.231C218.051 137.288 218.084 137.355 218.102 137.427C218.119 137.499 218.121 137.574 218.106 137.646L205.697 202.187C205.686 202.311 205.629 202.427 205.537 202.512C205.444 202.596 205.323 202.643 205.197 202.643ZM140.806 201.63H204.78L217.006 138.061H153.063L140.806 201.63Z" fill="#22242B"/>
<path d="M205.197 150.825H161.448C161.298 150.823 161.156 150.762 161.051 150.656C160.946 150.55 160.888 150.407 160.888 150.258C160.888 150.111 160.947 149.969 161.052 149.865C161.157 149.76 161.299 149.702 161.448 149.702H205.197C205.272 149.7 205.346 149.714 205.415 149.741C205.484 149.769 205.547 149.809 205.6 149.861C205.653 149.913 205.696 149.975 205.724 150.043C205.753 150.111 205.768 150.185 205.768 150.258C205.768 150.333 205.753 150.407 205.725 150.475C205.696 150.544 205.654 150.607 205.601 150.659C205.548 150.712 205.485 150.754 205.416 150.782C205.347 150.811 205.272 150.825 205.197 150.825Z" fill="#B8B7BE"/>
<path d="M203.251 160.938H159.512C159.438 160.939 159.364 160.926 159.295 160.898C159.225 160.871 159.162 160.83 159.109 160.778C159.056 160.727 159.014 160.665 158.985 160.596C158.956 160.528 158.942 160.455 158.942 160.381C158.942 160.231 159.002 160.087 159.109 159.98C159.216 159.874 159.361 159.814 159.512 159.814H203.262C203.411 159.817 203.554 159.878 203.659 159.984C203.763 160.09 203.822 160.232 203.822 160.381C203.822 160.455 203.807 160.528 203.778 160.596C203.75 160.665 203.707 160.727 203.654 160.778C203.601 160.83 203.538 160.871 203.469 160.898C203.4 160.926 203.326 160.939 203.251 160.938Z" fill="#B8B7BE"/>
<path d="M201.285 171.06H157.546C157.409 171.042 157.283 170.975 157.192 170.872C157.101 170.768 157.051 170.636 157.051 170.498C157.051 170.361 157.101 170.229 157.192 170.125C157.283 170.022 157.409 169.955 157.546 169.937H201.285C201.366 169.926 201.448 169.932 201.526 169.956C201.604 169.979 201.676 170.019 201.737 170.072C201.798 170.125 201.847 170.191 201.881 170.264C201.914 170.338 201.932 170.418 201.932 170.498C201.932 170.579 201.914 170.659 201.881 170.733C201.847 170.806 201.798 170.872 201.737 170.925C201.676 170.978 201.604 171.018 201.526 171.041C201.448 171.065 201.366 171.071 201.285 171.06Z" fill="#B8B7BE"/>
<path d="M199.349 181.183H155.6C155.519 181.194 155.437 181.187 155.359 181.164C155.281 181.141 155.209 181.101 155.148 181.048C155.087 180.995 155.038 180.929 155.004 180.855C154.971 180.782 154.953 180.702 154.953 180.621C154.953 180.54 154.971 180.46 155.004 180.387C155.038 180.313 155.087 180.248 155.148 180.194C155.209 180.141 155.281 180.102 155.359 180.078C155.437 180.055 155.519 180.048 155.6 180.059H199.349C199.486 180.078 199.612 180.145 199.703 180.248C199.794 180.351 199.844 180.484 199.844 180.621C199.844 180.758 199.794 180.891 199.703 180.994C199.612 181.098 199.486 181.165 199.349 181.183Z" fill="#B8B7BE"/>
<path d="M184.403 191.305H153.644C153.507 191.287 153.381 191.22 153.29 191.117C153.199 191.013 153.149 190.881 153.149 190.743C153.149 190.606 153.199 190.474 153.29 190.37C153.381 190.267 153.507 190.2 153.644 190.182H184.403C184.54 190.2 184.665 190.267 184.756 190.37C184.847 190.474 184.897 190.606 184.897 190.743C184.897 190.881 184.847 191.013 184.756 191.117C184.665 191.22 184.54 191.287 184.403 191.305Z" fill="#B8B7BE"/>
<defs>
<linearGradient id="paint0_linear_487_4997" x1="185.507" y1="85.3309" x2="243.763" y2="106.4" gradientUnits="userSpaceOnUse">
<stop stop-color="#FE6A32"/>
<stop offset="1" stop-color="#FE9D5C"/>
</linearGradient>
</defs>
</svg>
