<svg width="19" height="20" viewBox="0 0 19 20" fill="none" xmlns="http://www.w3.org/2000/svg">
<path d="M6.875 16.4167V10.9167C6.875 9.90414 6.05419 9.08333 5.04167 9.08333H3.20833C2.19581 9.08333 1.375 9.90414 1.375 10.9167V16.4167C1.375 17.4292 2.19581 18.25 3.20833 18.25H5.04167C6.05419 18.25 6.875 17.4292 6.875 16.4167ZM6.875 16.4167V7.25C6.875 6.23748 7.69581 5.41667 8.70833 5.41667H10.5417C11.5542 5.41667 12.375 6.23748 12.375 7.25V16.4167M6.875 16.4167C6.875 17.4292 7.69581 18.25 8.70833 18.25H10.5417C11.5542 18.25 12.375 17.4292 12.375 16.4167M12.375 16.4167V3.58333C12.375 2.57081 13.1958 1.75 14.2083 1.75H16.0417C17.0542 1.75 17.875 2.57081 17.875 3.58333V16.4167C17.875 17.4292 17.0542 18.25 16.0417 18.25H14.2083C13.1958 18.25 12.375 17.4292 12.375 16.4167Z" stroke="#B8B7BE" stroke-width="2" stroke-linecap="round" stroke-linejoin="round"/>
</svg>
