<svg width="31" height="30" viewBox="0 0 31 30" fill="none" xmlns="http://www.w3.org/2000/svg">
<ellipse cx="15.2728" cy="15" rx="15.2728" ry="15" fill="#FE9D5C"/>
<path d="M21.6651 8.21969H20.4386C20.3375 7.92429 20.1797 7.64958 19.9733 7.40969C19.734 7.15344 19.4405 6.94874 19.1124 6.80911C18.7844 6.66948 18.429 6.59811 18.07 6.5997H13.4344C13.0725 6.5958 12.714 6.66606 12.3828 6.80576C12.0516 6.94547 11.7554 7.15138 11.5142 7.40969C11.3017 7.64828 11.1381 7.92308 11.032 8.21969H9.82235C9.1493 8.21969 8.50381 8.4757 8.02789 8.93141C7.55198 9.38712 7.28461 10.0052 7.28461 10.6497V20.3696C7.28461 21.014 7.55198 21.6321 8.02789 22.0878C8.50381 22.5435 9.1493 22.7995 9.82235 22.7995H21.6651C22.3382 22.7995 22.9837 22.5435 23.4596 22.0878C23.9355 21.6321 24.2029 21.014 24.2029 20.3696V10.6497C24.2029 10.0052 23.9355 9.38712 23.4596 8.93141C22.9837 8.4757 22.3382 8.21969 21.6651 8.21969ZM12.8 8.49508C12.8792 8.40868 12.9768 8.33944 13.0862 8.29195C13.1956 8.24447 13.3143 8.21983 13.4344 8.21969H18.0531C18.1732 8.21983 18.2919 8.24447 18.4013 8.29195C18.5107 8.33944 18.6083 8.40868 18.6875 8.49508C18.7674 8.58013 18.8275 8.6804 18.8639 8.7893C18.9004 8.89819 18.9123 9.01324 18.899 9.12688L18.476 12.3668C18.4511 12.5644 18.3511 12.7463 18.1951 12.8777C18.0391 13.0092 17.838 13.0811 17.6301 13.0796H16.2428L17.2072 11.1357C17.2854 10.945 17.2852 10.7331 17.2068 10.5426C17.1284 10.352 16.9775 10.197 16.7845 10.1087C16.5915 10.0204 16.3707 10.0054 16.1666 10.0667C15.9626 10.128 15.7903 10.261 15.6845 10.4391L14.3649 13.0796H13.8574C13.6495 13.0811 13.4484 13.0092 13.2924 12.8777C13.1364 12.7463 13.0364 12.5644 13.0114 12.3668L12.5885 9.12688C12.5752 9.01324 12.5871 8.89819 12.6236 8.7893C12.66 8.6804 12.7201 8.58013 12.8 8.49508ZM22.5111 20.3696C22.5111 20.5844 22.4219 20.7904 22.2633 20.9423C22.1047 21.0942 21.8895 21.1796 21.6651 21.1796H9.82235C9.598 21.1796 9.38284 21.0942 9.2242 20.9423C9.06556 20.7904 8.97644 20.5844 8.97644 20.3696V10.6497C8.97644 10.4348 9.06556 10.2288 9.2242 10.0769C9.38284 9.92501 9.598 9.83967 9.82235 9.83967H10.9813L11.3365 12.5693C11.4133 13.1606 11.7141 13.7042 12.182 14.097C12.6499 14.4897 13.2521 14.7042 13.8743 14.6996H17.6471C18.2692 14.7042 18.8715 14.4897 19.3393 14.097C19.8072 13.7042 20.1081 13.1606 20.1848 12.5693L20.5062 9.83967H21.6651C21.8895 9.83967 22.1047 9.92501 22.2633 10.0769C22.4219 10.2288 22.5111 10.4348 22.5111 10.6497V20.3696ZM17.4356 17.9396H14.0519C13.8276 17.9396 13.6124 18.0249 13.4538 18.1768C13.2951 18.3287 13.206 18.5348 13.206 18.7496C13.206 18.9644 13.2951 19.1704 13.4538 19.3223C13.6124 19.4742 13.8276 19.5596 14.0519 19.5596H17.4356C17.6599 19.5596 17.8751 19.4742 18.0337 19.3223C18.1924 19.1704 18.2815 18.9644 18.2815 18.7496C18.2815 18.5348 18.1924 18.3287 18.0337 18.1768C17.8751 18.0249 17.6599 17.9396 17.4356 17.9396Z" fill="white"/>
</svg>
